<svg width="56" height="57" viewBox="0 0 56 57" fill="none" xmlns="http://www.w3.org/2000/svg">
<rect y="0.205078" width="56" height="56" rx="10" fill="#F3FAFF"/>
<rect y="0.205078" width="56" height="56" rx="10" fill="url(#paint0_linear_1834_28494)"/>
<g clip-path="url(#clip0_1834_28494)">
<path d="M18.5087 22.6796V22.1796H18.0087V22.6796H18.5087ZM31.9128 22.6796H32.4128V22.1796L31.9128 22.1796V22.6796ZM24.8946 38.5025C24.8946 38.7786 25.1185 39.0025 25.3946 39.0025C25.6708 39.0025 25.8946 38.7786 25.8946 38.5025L24.8946 38.5025ZM31.4128 24.7077C31.4128 24.9838 31.6366 25.2077 31.9128 25.2077C32.1889 25.2077 32.4128 24.9838 32.4128 24.7077H31.4128ZM26.9413 39.2603C27.2174 39.2603 27.4413 39.0364 27.4413 38.7603C27.4413 38.4841 27.2174 38.2603 26.9413 38.2603V39.2603ZM23.8481 38.2603C23.572 38.2603 23.3481 38.4841 23.3481 38.7603C23.3481 39.0364 23.572 39.2603 23.8481 39.2603V38.2603ZM18.0087 24.7077C18.0087 24.9838 18.2326 25.2077 18.5087 25.2077C18.7848 25.2077 19.0087 24.9838 19.0087 24.7077H18.0087ZM37.4439 13.32L37.9111 13.1421C37.8373 12.9482 37.6514 12.82 37.4439 12.82C37.2364 12.82 37.0504 12.9482 36.9766 13.1421L37.4439 13.32ZM38.9692 17.3258L38.5019 17.5037C38.5527 17.637 38.6579 17.7423 38.7913 17.793L38.9692 17.3258ZM42.975 18.8511L43.1529 19.3184C43.3468 19.2445 43.475 19.0586 43.475 18.8511C43.475 18.6436 43.3468 18.4577 43.1529 18.3838L42.975 18.8511ZM38.9692 20.3764L38.7913 19.9091C38.6579 19.9599 38.5527 20.0652 38.5019 20.1985L38.9692 20.3764ZM37.4439 24.3822L36.9766 24.5601C37.0504 24.754 37.2364 24.8822 37.4439 24.8822C37.6514 24.8822 37.8373 24.754 37.9111 24.5601L37.4439 24.3822ZM35.9185 20.3764L36.3858 20.1985C36.3351 20.0652 36.2298 19.9599 36.0965 19.9091L35.9185 20.3764ZM31.9128 18.8511L31.7348 18.3838C31.5409 18.4577 31.4128 18.6436 31.4128 18.8511C31.4128 19.0586 31.5409 19.2445 31.7348 19.3184L31.9128 18.8511ZM35.9185 17.3258L36.0965 17.793C36.2298 17.7423 36.3351 17.637 36.3858 17.5037L35.9185 17.3258ZM42.9537 24.7077C42.9537 24.4315 42.7298 24.2077 42.4537 24.2077C42.1775 24.2077 41.9537 24.4315 41.9537 24.7077H42.9537ZM31.7791 13.7859C32.0553 13.7859 32.2791 13.562 32.2791 13.2859C32.2791 13.0097 32.0553 12.7859 31.7791 12.7859V13.7859ZM18.5087 23.1796H25.3945V22.1796H18.5087V23.1796ZM25.3945 23.1796L31.9128 23.1796L31.9128 22.1796L25.3945 22.1796L25.3945 23.1796ZM24.8945 22.6796L24.8946 38.5025L25.8946 38.5025L25.8945 22.6796L24.8945 22.6796ZM31.4128 22.6796V24.7077H32.4128V22.6796H31.4128ZM26.9413 38.2603H23.8481V39.2603H26.9413V38.2603ZM18.0087 22.6796V24.7077H19.0087V22.6796H18.0087ZM36.9766 13.4979L38.5019 17.5037L39.4365 17.1479L37.9111 13.1421L36.9766 13.4979ZM38.7913 17.793L42.797 19.3184L43.1529 18.3838L39.1471 16.8585L38.7913 17.793ZM42.797 18.3838L38.7913 19.9091L39.1471 20.8437L43.1529 19.3184L42.797 18.3838ZM38.5019 20.1985L36.9766 24.2043L37.9111 24.5601L39.4365 20.5543L38.5019 20.1985ZM37.9111 24.2043L36.3858 20.1985L35.4513 20.5543L36.9766 24.5601L37.9111 24.2043ZM36.0965 19.9091L32.0907 18.3838L31.7348 19.3184L35.7406 20.8437L36.0965 19.9091ZM32.0907 19.3184L36.0965 17.793L35.7406 16.8585L31.7348 18.3838L32.0907 19.3184ZM36.3858 17.5037L37.9111 13.4979L36.9766 13.1421L35.4513 17.1479L36.3858 17.5037ZM39.2506 42.2142H16.2285V43.2142H39.2506V42.2142ZM13.5254 39.5111V16.489H12.5254V39.5111H13.5254ZM41.9537 24.7077V39.5111H42.9537V24.7077H41.9537ZM16.2285 13.7859H31.7791V12.7859H16.2285V13.7859ZM16.2285 42.2142C14.7356 42.2142 13.5254 41.004 13.5254 39.5111H12.5254C12.5254 41.5562 14.1833 43.2142 16.2285 43.2142V42.2142ZM39.2506 43.2142C41.2957 43.2142 42.9537 41.5562 42.9537 39.5111H41.9537C41.9537 41.0039 40.7435 42.2142 39.2506 42.2142V43.2142ZM13.5254 16.489C13.5254 14.9961 14.7356 13.7859 16.2285 13.7859V12.7859C14.1833 12.7859 12.5254 14.4438 12.5254 16.489H13.5254Z" fill="#0069BE"/>
</g>
<defs>
<linearGradient id="paint0_linear_1834_28494" x1="28" y1="56.2051" x2="28" y2="0.205078" gradientUnits="userSpaceOnUse">
<stop offset="0.25" stop-color="#AAD6FA" stop-opacity="0"/>
<stop offset="1" stop-color="#AAD6FA"/>
</linearGradient>
<clipPath id="clip0_1834_28494">
<rect width="32" height="32" fill="white" transform="translate(12 12)"/>
</clipPath>
</defs>
</svg>
