<svg width="56" height="57" viewBox="0 0 56 57" fill="none" xmlns="http://www.w3.org/2000/svg">
<path d="M11.3902 19.125V18.125H10.3902V19.125H11.3902ZM34.8473 19.125H35.8473V18.125L34.8473 18.125V19.125ZM22.4406 46.815C22.4406 47.3673 22.8883 47.815 23.4406 47.815C23.9929 47.815 24.4406 47.3673 24.4406 46.815L22.4406 46.815ZM33.8473 22.6742C33.8473 23.2265 34.2951 23.6742 34.8473 23.6742C35.3996 23.6742 35.8473 23.2265 35.8473 22.6742H33.8473ZM26.1472 48.2662C26.6995 48.2662 27.1472 47.8185 27.1472 47.2662C27.1472 46.7139 26.6995 46.2662 26.1472 46.2662V48.2662ZM20.7342 46.2662C20.1819 46.2662 19.7342 46.7139 19.7342 47.2662C19.7342 47.8185 20.1819 48.2662 20.7342 48.2662V46.2662ZM10.3902 22.6742C10.3902 23.2265 10.8379 23.6742 11.3902 23.6742C11.9425 23.6742 12.3902 23.2265 12.3902 22.6742H10.3902ZM44.5268 2.74574L45.4613 2.38988C45.3136 2.00205 44.9418 1.74574 44.5268 1.74574C44.1118 1.74574 43.7399 2.00205 43.5922 2.38988L44.5268 2.74574ZM47.1961 9.75584L46.2615 10.1117C46.363 10.3783 46.5736 10.5889 46.8402 10.6904L47.1961 9.75584ZM54.2062 12.4252L54.562 13.3597C54.9499 13.212 55.2062 12.8401 55.2062 12.4252C55.2062 12.0102 54.9499 11.6383 54.562 11.4906L54.2062 12.4252ZM47.1961 15.0945L46.8402 14.1599C46.5736 14.2614 46.363 14.472 46.2615 14.7386L47.1961 15.0945ZM44.5268 22.1046L43.5922 22.4604C43.7399 22.8482 44.1118 23.1046 44.5268 23.1046C44.9418 23.1046 45.3136 22.8482 45.4613 22.4604L44.5268 22.1046ZM41.8575 15.0945L42.792 14.7386C42.6905 14.472 42.4799 14.2614 42.2133 14.1599L41.8575 15.0945ZM34.8473 12.4252L34.4915 11.4906C34.1037 11.6383 33.8473 12.0102 33.8473 12.4252C33.8473 12.8401 34.1037 13.212 34.4915 13.3597L34.8473 12.4252ZM41.8575 9.75584L42.2133 10.6904C42.4799 10.5889 42.6905 10.3783 42.792 10.1117L41.8575 9.75584ZM54.2939 22.6742C54.2939 22.1219 53.8462 21.6742 53.2939 21.6742C52.7416 21.6742 52.2939 22.1219 52.2939 22.6742H54.2939ZM34.6135 3.68604C35.1658 3.68604 35.6135 3.23832 35.6135 2.68604C35.6135 2.13375 35.1658 1.68604 34.6135 1.68604V3.68604ZM11.3902 20.125H23.4404V18.125H11.3902V20.125ZM23.4404 20.125L34.8474 20.125L34.8473 18.125L23.4404 18.125L23.4404 20.125ZM22.4404 19.125L22.4406 46.815L24.4406 46.815L24.4404 19.125L22.4404 19.125ZM33.8473 19.125V22.6742H35.8473V19.125H33.8473ZM26.1472 46.2662H20.7342V48.2662H26.1472V46.2662ZM10.3902 19.125V22.6742H12.3902V19.125H10.3902ZM43.5922 3.10159L46.2615 10.1117L48.1306 9.39999L45.4613 2.38988L43.5922 3.10159ZM46.8402 10.6904L53.8503 13.3597L54.562 11.4906L47.5519 8.8213L46.8402 10.6904ZM53.8503 11.4906L46.8402 14.1599L47.5519 16.029L54.562 13.3597L53.8503 11.4906ZM46.2615 14.7386L43.5922 21.7487L45.4613 22.4604L48.1306 15.4503L46.2615 14.7386ZM45.4613 21.7487L42.792 14.7386L40.9229 15.4503L43.5922 22.4604L45.4613 21.7487ZM42.2133 14.1599L35.2032 11.4906L34.4915 13.3597L41.5016 16.029L42.2133 14.1599ZM35.2032 13.3597L42.2133 10.6904L41.5016 8.8213L34.4915 11.4906L35.2032 13.3597ZM42.792 10.1117L45.4613 3.10159L43.5922 2.38988L40.9229 9.39999L42.792 10.1117ZM47.6885 53.1855H7.39982V55.1855H47.6885V53.1855ZM2.79443 48.5801V8.29142H0.794434V48.5801H2.79443ZM52.2939 22.6742V48.5801H54.2939V22.6742H52.2939ZM7.39982 3.68604H34.6135V1.68604H7.39982V3.68604ZM7.39982 53.1855C4.85633 53.1855 2.79443 51.1236 2.79443 48.5801H0.794434C0.794434 52.2282 3.75177 55.1855 7.39982 55.1855V53.1855ZM47.6885 55.1855C51.3366 55.1855 54.2939 52.2282 54.2939 48.5801H52.2939C52.2939 51.1236 50.232 53.1855 47.6885 53.1855V55.1855ZM2.79443 8.29142C2.79443 5.74794 4.85633 3.68604 7.39982 3.68604V1.68604C3.75176 1.68604 0.794434 4.64337 0.794434 8.29142H2.79443Z" fill="black"/>
</svg>
