<svg width="56" height="57" viewBox="0 0 56 57" fill="none" xmlns="http://www.w3.org/2000/svg">
<g id="Local Icon Library / Brand product" clip-path="url(#clip0_2384_8207)">
<path id="Shape" d="M24.7886 43.5226C24.7886 42.5079 24.7219 41.493 24.0571 40.8283C23.7351 40.5063 23.3536 40.2438 22.9297 40.058C21.1789 39.2931 19.7213 40.2907 19.7213 42.2011V45.1641C19.7213 48.4934 20.6693 51.1118 21.5938 52.8725C22.0719 53.7826 22.4525 54.736 22.7339 55.7174H35.6188C35.9147 54.3373 36.3476 52.9952 36.9051 51.9245C37.5382 50.7077 38.1796 49.0887 38.5151 47.1151C38.6035 46.6822 38.6603 46.1653 38.6964 45.6088C38.8524 43.2203 36.9628 41.1954 34.5689 41.1954H30.5451V31.1481C30.5451 29.6689 29.3816 28.4223 27.9041 28.3881C27.1311 28.37 26.4303 28.6758 25.9261 29.18C25.4363 29.6698 25.1332 30.3463 25.1332 31.0931L24.7886 43.5226ZM24.7886 43.5226V46.5452M28 4.89307L31.0334 11.0396L37.8166 12.0253L32.9082 16.8097L34.067 23.5653L28 20.3757L21.933 23.5653L23.0917 16.8097L18.1833 12.0253L24.9665 11.0396L28 4.89307ZM7.22266 32.4295L10.8178 24.166L16.4157 31.2281L7.22266 32.4295ZM43.2777 23.5653L48.7752 29.0628L43.2777 34.5603L37.7802 29.0628L43.2777 23.5653Z" stroke="black" stroke-width="2" stroke-miterlimit="10" stroke-linecap="round" stroke-linejoin="round"/>
</g>
<defs>
<clipPath id="clip0_2384_8207">
<rect width="56" height="56" fill="white" transform="translate(0 0.358887)"/>
</clipPath>
</defs>
</svg>
