<svg width="56" height="57" viewBox="0 0 56 57" fill="none" xmlns="http://www.w3.org/2000/svg">
<path d="M27.8166 3.17798L28.5237 2.47087C28.3362 2.28334 28.0818 2.17798 27.8166 2.17798V3.17798ZM13.7921 3.17798V2.17798V3.17798ZM9.78511 7.18498H8.78511H9.78511ZM41.8411 17.2025H42.8411C42.8411 16.9373 42.7358 16.6829 42.5482 16.4954L41.8411 17.2025ZM46.2129 15.1461H47.2129C47.2129 14.8759 47.1036 14.6173 46.9099 14.429L46.2129 15.1461ZM36.0542 5.27157L36.7512 4.55451L36.7458 4.54926L36.7404 4.5441L36.0542 5.27157ZM29.2465 3.65223C28.6942 3.65223 28.2465 4.09995 28.2465 4.65223C28.2465 5.20452 28.6942 5.65223 29.2465 5.65223V3.65223ZM40.8411 25.9911C40.8411 26.5433 41.2889 26.9911 41.8411 26.9911C42.3934 26.9911 42.8411 26.5433 42.8411 25.9911H40.8411ZM8.78511 25.9911C8.78511 26.5433 9.23283 26.9911 9.78511 26.9911C10.3374 26.9911 10.7851 26.5433 10.7851 25.9911H8.78511ZM45.2129 25.9911C45.2129 26.5433 45.6606 26.9911 46.2129 26.9911C46.7652 26.9911 47.2129 26.5433 47.2129 25.9911H45.2129ZM27.8166 2.17798H13.7921V4.17798H27.8166V2.17798ZM13.7921 2.17798C12.4642 2.17798 11.1906 2.7055 10.2516 3.6445L11.6658 5.05871C12.2298 4.49479 12.9946 4.17798 13.7921 4.17798V2.17798ZM10.2516 3.6445C9.31263 4.58349 8.78511 5.85704 8.78511 7.18498H10.7851C10.7851 6.38747 11.1019 5.62263 11.6658 5.05871L10.2516 3.6445ZM42.5482 16.4954L28.5237 2.47087L27.1095 3.88509L41.134 17.9096L42.5482 16.4954ZM26.8166 3.17798V14.93H28.8166V3.17798H26.8166ZM30.0891 18.2025H41.8411V16.2025H30.0891V18.2025ZM26.8166 14.93C26.8166 16.7373 28.2818 18.2025 30.0891 18.2025V16.2025C29.3864 16.2025 28.8166 15.6328 28.8166 14.93H26.8166ZM35.3572 5.98863L45.5159 15.8631L46.9099 14.429L36.7512 4.55451L35.3572 5.98863ZM34.4949 3.65223H29.2465V5.65223H34.4949V3.65223ZM36.7404 4.5441C36.133 3.97129 35.3298 3.65223 34.4949 3.65223V5.65223C34.8196 5.65223 35.1319 5.7763 35.3681 5.99904L36.7404 4.5441ZM42.8411 25.9911V17.2025H40.8411V25.9911H42.8411ZM8.78511 7.18498V25.9911H10.7851V7.18498H8.78511ZM47.2129 25.9911V15.1461H45.2129V25.9911H47.2129ZM4.78618 26.9911H51.2134V24.9911H4.78618V26.9911ZM52.7588 28.5365V50.9946H54.7588V28.5365H52.7588ZM51.2134 52.54H4.78618V54.54H51.2134V52.54ZM3.24072 50.9946V28.5365H1.24072V50.9946H3.24072ZM4.78618 52.54C3.93265 52.54 3.24072 51.8481 3.24072 50.9946H1.24072C1.24072 52.9527 2.82808 54.54 4.78618 54.54V52.54ZM52.7588 50.9946C52.7588 51.8481 52.0669 52.54 51.2134 52.54V54.54C53.1715 54.54 54.7588 52.9527 54.7588 50.9946H52.7588ZM51.2134 26.9911C52.0669 26.9911 52.7588 27.683 52.7588 28.5365H54.7588C54.7588 26.5784 53.1715 24.9911 51.2134 24.9911V26.9911ZM4.78618 24.9911C2.82808 24.9911 1.24072 26.5784 1.24072 28.5365H3.24072C3.24072 27.683 3.93265 26.9911 4.78618 26.9911V24.9911Z" fill="black"/>
</svg>
