<svg width="56" height="57" viewBox="0 0 56 57" fill="none" xmlns="http://www.w3.org/2000/svg">
<path d="M27.9998 47.4572L28.9998 47.4572L28.9998 47.4572L27.9998 47.4572ZM26.9998 16.1489C26.9998 16.7012 27.4475 17.1489 27.9998 17.1489C28.5521 17.1489 28.9998 16.7012 28.9998 16.1489L26.9998 16.1489ZM28.9998 40.415C28.9998 39.8628 28.5521 39.415 27.9998 39.415C27.4475 39.415 26.9998 39.8628 26.9998 40.415L28.9998 40.415ZM19.4735 38.9135L19.4734 37.9135L19.4734 37.9135L19.4735 38.9135ZM43.0307 38.9125L43.8284 39.5156C44.0981 39.1588 44.0981 38.6663 43.8284 38.3095L43.0307 38.9125ZM39.4388 32.5035C39.1058 32.063 38.4786 31.9759 38.0381 32.3089C37.5975 32.642 37.5104 33.2691 37.8435 33.7097L39.4388 32.5035ZM37.8435 44.1154C37.5104 44.5559 37.5975 45.1831 38.0381 45.5161C38.4786 45.8492 39.1058 45.7621 39.4388 45.3215L37.8435 44.1154ZM15.3824 30.1163C15.3824 29.564 14.9347 29.1163 14.3824 29.1163C13.8301 29.1163 13.3824 29.564 13.3824 30.1163H15.3824ZM8.85325 24.2592C8.85325 24.8114 9.30097 25.2592 9.85325 25.2592C10.4055 25.2592 10.8533 24.8114 10.8533 24.2592H8.85325ZM17.9098 24.2592C17.9098 24.8114 18.3575 25.2592 18.9098 25.2592C19.4621 25.2592 19.9098 24.8114 19.9098 24.2592H17.9098ZM36.0907 24.2592C36.0907 24.8114 36.5384 25.2592 37.0907 25.2592C37.6429 25.2592 38.0907 24.8114 38.0907 24.2592H36.0907ZM45.3041 24.7969C45.6011 25.2625 46.2193 25.3993 46.6849 25.1023C47.1506 24.8053 47.2873 24.1871 46.9903 23.7214L45.3041 24.7969ZM43.3299 18.1077L43.3941 19.1057L43.3941 19.1057L43.3299 18.1077ZM7.56161 5.01587H22.9089V3.01587H7.56161V5.01587ZM26.9998 9.10678V47.4572H28.9998V9.10678H26.9998ZM22.9089 51.5481H7.56161V53.5481H22.9089V51.5481ZM3.4707 47.4572V9.10678H1.4707V47.4572H3.4707ZM7.56161 51.5481C5.30227 51.5481 3.4707 49.7165 3.4707 47.4572H1.4707C1.4707 50.8211 4.1977 53.5481 7.56161 53.5481V51.5481ZM26.9998 47.4572C26.9998 49.7165 25.1683 51.5481 22.9089 51.5481V53.5481C26.2728 53.5481 28.9998 50.8211 28.9998 47.4572H26.9998ZM22.9089 5.01587C25.1683 5.01587 26.9998 6.84743 26.9998 9.10678H28.9998C28.9998 5.74286 26.2728 3.01587 22.9089 3.01587V5.01587ZM7.56161 3.01587C4.1977 3.01587 1.4707 5.74287 1.4707 9.10678H3.4707C3.4707 6.84743 5.30227 5.01587 7.56161 5.01587V3.01587ZM33.0907 5.01587H48.438V3.01587H33.0907V5.01587ZM52.5289 9.10678V47.4572H54.5289V9.10678H52.5289ZM48.438 51.5481H33.0907V53.5481H48.438V51.5481ZM28.9998 16.1489L28.9998 9.10678L26.9998 9.10678L26.9998 16.1489L28.9998 16.1489ZM28.9998 47.4572L28.9998 40.415L26.9998 40.415L26.9998 47.4572L28.9998 47.4572ZM33.0907 51.5481C30.8314 51.5481 28.9998 49.7165 28.9998 47.4572H26.9998C26.9998 50.8211 29.7268 53.5481 33.0907 53.5481V51.5481ZM52.5289 47.4572C52.5289 49.7165 50.6974 51.5481 48.438 51.5481V53.5481C51.8019 53.5481 54.5289 50.8211 54.5289 47.4572H52.5289ZM48.438 5.01587C50.6974 5.01587 52.5289 6.84743 52.5289 9.10678H54.5289C54.5289 5.74286 51.8019 3.01587 48.438 3.01587V5.01587ZM33.0907 3.01587C29.7268 3.01587 26.9998 5.74286 26.9998 9.10678H28.9998C28.9998 6.84743 30.8314 5.01587 33.0907 5.01587V3.01587ZM19.4735 39.9135L43.0307 39.9125L43.0306 37.9125L19.4734 37.9135L19.4735 39.9135ZM43.8284 38.3095L39.4388 32.5035L37.8435 33.7097L42.233 39.5156L43.8284 38.3095ZM42.233 38.3095L37.8435 44.1154L39.4388 45.3215L43.8284 39.5156L42.233 38.3095ZM15.3824 33.8226V30.1163H13.3824V33.8226H15.3824ZM19.4734 37.9135C17.214 37.9136 15.3824 36.082 15.3824 33.8226H13.3824C13.3824 37.1866 16.1095 39.9137 19.4735 39.9135L19.4734 37.9135ZM10.8533 24.2592V18.1761H8.85325V24.2592H10.8533ZM10.8533 18.1761V16.6212H8.85325V18.1761H10.8533ZM17.9098 16.6212V18.1761H19.9098V16.6212H17.9098ZM17.9098 18.1761V24.2592H19.9098V18.1761H17.9098ZM9.85325 19.1761H18.9098V17.1761H9.85325V19.1761ZM14.3815 13.093C16.3301 13.093 17.9098 14.6726 17.9098 16.6212H19.9098C19.9098 13.568 17.4347 11.093 14.3815 11.093V13.093ZM14.3815 11.093C11.3283 11.093 8.85325 13.568 8.85325 16.6212H10.8533C10.8533 14.6726 12.4329 13.093 14.3815 13.093V11.093ZM41.6189 13.093H43.1367V11.093H41.6189V13.093ZM38.0907 24.2592V18.1761H36.0907V24.2592H38.0907ZM38.0907 18.1761V16.6212H36.0907V18.1761H38.0907ZM41.4242 18.7138L45.3041 24.7969L46.9903 23.7214L43.1104 17.6383L41.4242 18.7138ZM37.0907 19.1761H42.2673V17.1761H37.0907V19.1761ZM43.2657 17.1098L42.2031 17.1781L42.3315 19.174L43.3941 19.1057L43.2657 17.1098ZM43.1367 13.093C44.2471 13.093 45.1472 13.9931 45.1472 15.1034H47.1472C47.1472 12.8885 45.3516 11.093 43.1367 11.093V13.093ZM45.1472 15.1034C45.1472 16.1637 44.3238 17.0417 43.2657 17.1098L43.3941 19.1057C45.5047 18.9699 47.1472 17.2185 47.1472 15.1034H45.1472ZM41.6189 11.093C38.5657 11.093 36.0907 13.568 36.0907 16.6212H38.0907C38.0907 14.6726 39.6703 13.093 41.6189 13.093V11.093Z" fill="black"/>
</svg>
