<svg width="56" height="57" viewBox="0 0 56 57" fill="none" xmlns="http://www.w3.org/2000/svg">
<rect y="0.205078" width="56" height="56" rx="10" fill="#F3FAFF"/>
<rect y="0.205078" width="56" height="56" rx="10" fill="url(#paint0_linear_1834_28482)"/>
<path d="M28.0002 38.9573L28.7502 38.9573L28.7502 38.9573L28.0002 38.9573ZM27.2502 21.0668C27.2502 21.4811 27.586 21.8168 28.0002 21.8168C28.4144 21.8168 28.7502 21.4811 28.7502 21.0668L27.2502 21.0668ZM28.7502 34.9332C28.7502 34.519 28.4144 34.1832 28.0002 34.1832C27.586 34.1832 27.2502 34.519 27.2502 34.9332L28.7502 34.9332ZM23.128 34.0752L23.128 33.3252L23.128 33.3252L23.128 34.0752ZM36.5892 34.0746L37.1875 34.5269C37.3898 34.2593 37.3898 33.8899 37.1875 33.6223L36.5892 34.0746ZM34.6792 30.3046C34.4294 29.9742 33.959 29.9089 33.6286 30.1587C33.2982 30.4085 33.2329 30.8788 33.4827 31.2093L34.6792 30.3046ZM33.4827 36.94C33.2329 37.2704 33.2982 37.7408 33.6286 37.9906C33.959 38.2404 34.4294 38.175 34.6792 37.8446L33.4827 36.94ZM20.9688 29.0482C20.9688 28.634 20.633 28.2982 20.2188 28.2982C19.8046 28.2982 19.4688 28.634 19.4688 29.0482H20.9688ZM16.8807 25.7013C16.8807 26.1155 17.2165 26.4513 17.6307 26.4513C18.0449 26.4513 18.3807 26.1155 18.3807 25.7013H16.8807ZM22.0559 25.7013C22.0559 26.1155 22.3916 26.4513 22.8059 26.4513C23.2201 26.4513 23.5559 26.1155 23.5559 25.7013H22.0559ZM32.4449 25.7013C32.4449 26.1155 32.7807 26.4513 33.1949 26.4513C33.6092 26.4513 33.9449 26.1155 33.9449 25.7013H32.4449ZM37.7378 26.1046C37.9605 26.4538 38.4242 26.5563 38.7734 26.3336C39.1226 26.1109 39.2252 25.6472 39.0024 25.298L37.7378 26.1046ZM36.7602 22.1862L36.8083 22.9346L36.8083 22.9346L36.7602 22.1862ZM16.3212 14.8837H25.0911V13.3837H16.3212V14.8837ZM27.2502 17.0428V38.9573H28.7502V17.0428H27.2502ZM25.0911 41.1164H16.3212V42.6164H25.0911V41.1164ZM14.1621 38.9573V17.0428H12.6621V38.9573H14.1621ZM16.3212 41.1164C15.1288 41.1164 14.1621 40.1497 14.1621 38.9573H12.6621C12.6621 40.9781 14.3003 42.6164 16.3212 42.6164V41.1164ZM27.2502 38.9573C27.2502 40.1497 26.2835 41.1164 25.0911 41.1164V42.6164C27.1119 42.6164 28.7502 40.9781 28.7502 38.9573H27.2502ZM25.0911 14.8837C26.2835 14.8837 27.2502 15.8503 27.2502 17.0428H28.7502C28.7502 15.0219 27.1119 13.3837 25.0911 13.3837V14.8837ZM16.3212 13.3837C14.3003 13.3837 12.6621 15.0219 12.6621 17.0428H14.1621C14.1621 15.8503 15.1288 14.8837 16.3212 14.8837V13.3837ZM30.9093 14.8837H39.6792V13.3837H30.9093V14.8837ZM41.8382 17.0428V38.9573H43.3382V17.0428H41.8382ZM39.6792 41.1164H30.9093V42.6164H39.6792V41.1164ZM28.7502 21.0668L28.7502 17.0428L27.2502 17.0428L27.2502 21.0668L28.7502 21.0668ZM28.7502 38.9573L28.7502 34.9332L27.2502 34.9332L27.2502 38.9573L28.7502 38.9573ZM30.9093 41.1164C29.7168 41.1164 28.7502 40.1497 28.7502 38.9573H27.2502C27.2502 40.9781 28.8884 42.6164 30.9093 42.6164V41.1164ZM41.8382 38.9573C41.8382 40.1497 40.8716 41.1164 39.6792 41.1164V42.6164C41.7 42.6164 43.3382 40.9781 43.3382 38.9573H41.8382ZM39.6792 14.8837C40.8716 14.8837 41.8382 15.8503 41.8382 17.0428H43.3382C43.3382 15.0219 41.7 13.3837 39.6792 13.3837V14.8837ZM30.9093 13.3837C28.8884 13.3837 27.2502 15.0219 27.2502 17.0428H28.7502C28.7502 15.8503 29.7168 14.8837 30.9093 14.8837V13.3837ZM23.128 34.8252L36.5893 34.8246L36.5892 33.3246L23.128 33.3252L23.128 34.8252ZM37.1875 33.6223L34.6792 30.3046L33.4827 31.2093L35.991 34.5269L37.1875 33.6223ZM35.991 33.6223L33.4827 36.94L34.6792 37.8446L37.1875 34.5269L35.991 33.6223ZM20.9688 31.1661V29.0482H19.4688V31.1661H20.9688ZM23.128 33.3252C21.9355 33.3252 20.9688 32.3586 20.9688 31.1661H19.4688C19.4688 33.187 21.1071 34.8253 23.128 34.8252L23.128 33.3252ZM18.3807 25.7013V22.2252H16.8807V25.7013H18.3807ZM18.3807 22.2252V21.3367H16.8807V22.2252H18.3807ZM22.0559 21.3367V22.2252H23.5559V21.3367H22.0559ZM22.0559 22.2252V25.7013H23.5559V22.2252H22.0559ZM17.6307 22.9752H22.8059V21.4752H17.6307V22.9752ZM20.2183 19.4991C21.2332 19.4991 22.0559 20.3219 22.0559 21.3367H23.5559C23.5559 19.4934 22.0616 17.9991 20.2183 17.9991V19.4991ZM20.2183 17.9991C18.375 17.9991 16.8807 19.4934 16.8807 21.3367H18.3807C18.3807 20.3219 19.2034 19.4991 20.2183 19.4991V17.9991ZM35.7825 19.4991H36.6498V17.9991H35.7825V19.4991ZM33.9449 25.7013V22.2252H32.4449V25.7013H33.9449ZM33.9449 22.2252V21.3367H32.4449V22.2252H33.9449ZM35.5207 22.6285L37.7378 26.1046L39.0024 25.298L36.7853 21.8219L35.5207 22.6285ZM33.1949 22.9752H36.153V21.4752H33.1949V22.9752ZM36.7121 21.4377L36.1049 21.4768L36.2011 22.9737L36.8083 22.9346L36.7121 21.4377ZM36.6498 19.4991C37.1857 19.4991 37.6201 19.9336 37.6201 20.4694H39.1201C39.1201 19.1051 38.0141 17.9991 36.6498 17.9991V19.4991ZM37.6201 20.4694C37.6201 20.9811 37.2227 21.4049 36.7121 21.4377L36.8083 22.9346C38.1084 22.851 39.1201 21.7722 39.1201 20.4694H37.6201ZM35.7825 17.9991C33.9392 17.9991 32.4449 19.4934 32.4449 21.3367H33.9449C33.9449 20.3219 34.7677 19.4991 35.7825 19.4991V17.9991Z" fill="#0069BE"/>
<defs>
<linearGradient id="paint0_linear_1834_28482" x1="28" y1="56.2051" x2="28" y2="0.205078" gradientUnits="userSpaceOnUse">
<stop offset="0.25" stop-color="#AAD6FA" stop-opacity="0"/>
<stop offset="1" stop-color="#AAD6FA"/>
</linearGradient>
</defs>
</svg>
