<svg width="57" height="57" viewBox="0 0 57 57" fill="none" xmlns="http://www.w3.org/2000/svg">
<rect x="0.666504" y="0.205078" width="56" height="56" rx="10" fill="#F3FAFF"/>
<rect x="0.666504" y="0.205078" width="56" height="56" rx="10" fill="url(#paint0_linear_1623_39484)"/>
<g clip-path="url(#clip0_1623_39484)">
<path d="M28.9959 13.5813V42.4187M43.4242 28.0016H14.5868M21.6998 18.5028V23.6126M24.2542 21.0577H19.1444M23.5054 33.699L19.8922 37.3122M23.5054 37.3122L19.8922 33.699M38.708 21.0577H33.5982M39.7331 35.4591H32.573M41.2558 42.4182H16.7333C15.542 42.4182 14.5762 41.4525 14.5762 40.2611V15.7386C14.5762 14.5473 15.5419 13.5815 16.7333 13.5815H41.2558C42.4471 13.5815 43.4129 14.5472 43.4129 15.7386V40.2611C43.4129 41.4525 42.4471 42.4182 41.2558 42.4182ZM37.38 32.0929C37.38 32.7709 36.8304 33.3205 36.1524 33.3205C35.4745 33.3205 34.9249 32.7709 34.9249 32.0929C34.9249 31.415 35.4745 30.8654 36.1524 30.8654C36.8304 30.8654 37.38 31.415 37.38 32.0929ZM37.38 38.8248C37.38 39.5028 36.8304 40.0524 36.1524 40.0524C35.4745 40.0524 34.9249 39.5028 34.9249 38.8248C34.9249 38.1469 35.4745 37.5973 36.1524 37.5973C36.8304 37.5973 37.38 38.1469 37.38 38.8248Z" stroke="#0069BE" stroke-width="1.5" stroke-miterlimit="10" stroke-linecap="round" stroke-linejoin="round"/>
</g>
<defs>
<linearGradient id="paint0_linear_1623_39484" x1="28.6665" y1="56.2051" x2="28.6665" y2="0.205078" gradientUnits="userSpaceOnUse">
<stop offset="0.25" stop-color="#AAD6FA" stop-opacity="0"/>
<stop offset="1" stop-color="#AAD6FA"/>
</linearGradient>
<clipPath id="clip0_1623_39484">
<rect width="32" height="32" fill="white" transform="translate(13 12)"/>
</clipPath>
</defs>
</svg>
