<svg width="56" height="57" viewBox="0 0 56 57" fill="none" xmlns="http://www.w3.org/2000/svg">
<rect y="0.205078" width="56" height="56" rx="10" fill="#F3FAFF"/>
<rect y="0.205078" width="56" height="56" rx="10" fill="url(#paint0_linear_1834_28525)"/>
<g clip-path="url(#clip0_1834_28525)">
<path d="M22.7898 13.3862V12.8862C22.5137 12.8862 22.2898 13.1101 22.2898 13.3862H22.7898ZM29.9536 13.3862H30.4536C30.4536 13.1101 30.2298 12.8862 29.9536 12.8862V13.3862ZM22.7898 42.6139H22.2898C22.2898 42.89 22.5137 43.1139 22.7898 43.1139V42.6139ZM29.9536 42.6139V43.1139C30.2298 43.1139 30.4536 42.89 30.4536 42.6139H29.9536ZM42.844 21.6194V22.1194C43.1201 22.1194 43.344 21.8955 43.344 21.6194H42.844ZM42.844 13.3862H43.344C43.344 13.2536 43.2913 13.1264 43.1975 13.0327C43.1038 12.9389 42.9766 12.8862 42.844 12.8862V13.3862ZM22.7898 21.6194H22.2898C22.2898 21.8955 22.5137 22.1194 22.7898 22.1194V21.6194ZM19.5372 25.2816C19.7325 25.0863 19.7325 24.7698 19.5372 24.5745C19.342 24.3792 19.0254 24.3792 18.8301 24.5745L19.5372 25.2816ZM15.2359 28.1687C15.0407 28.364 15.0407 28.6805 15.2359 28.8758C15.4312 29.0711 15.7478 29.0711 15.943 28.8758L15.2359 28.1687ZM18.8301 18.8754C19.0254 19.0706 19.342 19.0706 19.5372 18.8754C19.7325 18.6801 19.7325 18.3635 19.5372 18.1683L18.8301 18.8754ZM15.943 14.5741C15.7478 14.3788 15.4312 14.3788 15.2359 14.5741C15.0407 14.7693 15.0407 15.0859 15.2359 15.2812L15.943 14.5741ZM18.0401 22.1194C18.3162 22.1194 18.5401 21.8955 18.5401 21.6194C18.5401 21.3432 18.3162 21.1194 18.0401 21.1194V22.1194ZM13.1558 21.1194C12.8796 21.1194 12.6558 21.3432 12.6558 21.6194C12.6558 21.8955 12.8796 22.1194 13.1558 22.1194V21.1194ZM29.9536 42.1139H22.7898V43.1139H29.9536V42.1139ZM42.344 13.3862V21.6194H43.344V13.3862H42.344ZM18.8301 24.5745L15.2359 28.1687L15.943 28.8758L19.5372 25.2816L18.8301 24.5745ZM19.5372 18.1683L15.943 14.5741L15.2359 15.2812L18.8301 18.8754L19.5372 18.1683ZM18.0401 21.1194H13.1558V22.1194H18.0401V21.1194ZM22.7898 13.8862H28.2204V12.8862H22.7898V13.8862ZM28.2204 13.8862L42.844 13.8862V12.8862L28.2204 12.8862L28.2204 13.8862ZM28.2204 13.8862H29.9536V12.8862H28.2204V13.8862ZM23.2898 21.6194V18.8169H22.2898V21.6194H23.2898ZM23.2898 18.8169V13.3862H22.2898V18.8169H23.2898ZM23.2898 42.6139V18.8169H22.2898V42.6139H23.2898ZM27.8669 13.0327L22.4363 18.4633L23.1434 19.1704L28.574 13.7398L27.8669 13.0327ZM29.4536 13.3862V16.7173H30.4536V13.3862H29.4536ZM29.4536 16.7173V42.6139H30.4536V16.7173H29.4536ZM42.844 21.1194H25.0516V22.1194H42.844V21.1194ZM25.0516 21.1194H22.7898V22.1194H25.0516V21.1194ZM29.6001 16.3638L24.698 21.2658L25.4051 21.9729L30.3072 17.0709L29.6001 16.3638Z" fill="#0069BE"/>
</g>
<defs>
<linearGradient id="paint0_linear_1834_28525" x1="28" y1="56.2051" x2="28" y2="0.205078" gradientUnits="userSpaceOnUse">
<stop offset="0.25" stop-color="#AAD6FA" stop-opacity="0"/>
<stop offset="1" stop-color="#AAD6FA"/>
</linearGradient>
<clipPath id="clip0_1834_28525">
<rect width="32" height="32" fill="white" transform="translate(12 12)"/>
</clipPath>
</defs>
</svg>
