<svg width="56" height="57" viewBox="0 0 56 57" fill="none" xmlns="http://www.w3.org/2000/svg">
<g id="Local Icon Library / Clash Resolver">
<path id="Shape" d="M18.8825 3.24612V2.24612C18.3302 2.24612 17.8825 2.69384 17.8825 3.24612H18.8825ZM31.4192 3.24612H32.4192C32.4192 2.69384 31.9715 2.24612 31.4192 2.24612V3.24612ZM18.8825 54.3945H17.8825C17.8825 54.9468 18.3302 55.3945 18.8825 55.3945V54.3945ZM31.4192 54.3945V55.3945C31.9715 55.3945 32.4192 54.9468 32.4192 54.3945H31.4192ZM53.9773 17.6541V18.6541C54.5296 18.6541 54.9773 18.2064 54.9773 17.6541H53.9773ZM53.9773 3.24609H54.9773C54.9773 2.98088 54.872 2.72652 54.6844 2.53899C54.4969 2.35145 54.2425 2.24609 53.9773 2.24609V3.24609ZM18.8825 17.6541H17.8825C17.8825 18.2064 18.3302 18.6541 18.8825 18.6541V17.6541ZM13.2789 24.1514C13.6694 23.7609 13.6694 23.1277 13.2789 22.7372C12.8884 22.3467 12.2552 22.3467 11.8647 22.7372L13.2789 24.1514ZM5.57483 29.027C5.18431 29.4176 5.18431 30.0507 5.57483 30.4412C5.96535 30.8318 6.59852 30.8318 6.98904 30.4412L5.57483 29.027ZM11.8647 12.9405C12.2552 13.331 12.8884 13.331 13.2789 12.9405C13.6694 12.5499 13.6694 11.9168 13.2789 11.5262L11.8647 12.9405ZM6.98904 5.23641C6.59852 4.84589 5.96535 4.84589 5.57483 5.23641C5.18431 5.62694 5.18431 6.2601 5.57483 6.65062L6.98904 5.23641ZM10.5705 18.6541C11.1228 18.6541 11.5705 18.2064 11.5705 17.6541C11.5705 17.1018 11.1228 16.6541 10.5705 16.6541V18.6541ZM2.02295 16.6541C1.47066 16.6541 1.02295 17.1018 1.02295 17.6541C1.02295 18.2064 1.47066 18.6541 2.02295 18.6541V16.6541ZM31.4192 53.3945H18.8825V55.3945H31.4192V53.3945ZM52.9773 3.24609V17.6541H54.9773V3.24609H52.9773ZM11.8647 22.7372L5.57483 29.027L6.98904 30.4412L13.2789 24.1514L11.8647 22.7372ZM13.2789 11.5262L6.98904 5.23641L5.57483 6.65062L11.8647 12.9405L13.2789 11.5262ZM10.5705 16.6541H2.02295V18.6541H10.5705V16.6541ZM18.8825 4.24612H28.3861V2.24612H18.8825V4.24612ZM28.3861 4.24612L53.9773 4.24609L53.9773 2.24609L28.3861 2.24612L28.3861 4.24612ZM28.3861 4.24612H31.4192V2.24612H28.3861V4.24612ZM19.8825 17.6541V12.7497H17.8825V17.6541H19.8825ZM19.8825 12.7497V3.24612H17.8825V12.7497H19.8825ZM19.8825 54.3945V12.7497H17.8825V54.3945H19.8825ZM27.679 2.53902L18.1754 12.0426L19.5896 13.4568L29.0932 3.95323L27.679 2.53902ZM30.4192 3.24612V9.07553H32.4192V3.24612H30.4192ZM30.4192 9.07553V54.3945H32.4192V9.07553H30.4192ZM53.9773 16.6541H22.8406V18.6541H53.9773V16.6541ZM22.8406 16.6541H18.8825V18.6541H22.8406V16.6541ZM30.7121 8.36842L22.1335 16.947L23.5478 18.3612L32.1263 9.78264L30.7121 8.36842Z" fill="black"/>
</g>
</svg>
