<svg width="56" height="57" viewBox="0 0 56 57" fill="none" xmlns="http://www.w3.org/2000/svg">
<rect y="0.205078" width="56" height="56" rx="10" fill="#F3FAFF"/>
<rect y="0.205078" width="56" height="56" rx="10" fill="url(#paint0_linear_1840_30955)"/>
<g clip-path="url(#clip0_1840_30955)">
<path d="M28.0004 18.28C29.3768 18.28 30.4927 17.1642 30.4927 15.7877C30.4927 14.4112 29.3768 13.2954 28.0004 13.2954C26.6239 13.2954 25.5081 14.4112 25.5081 15.7877C25.5081 17.1642 26.6239 18.28 28.0004 18.28ZM28.0004 18.28V37.7198M18.2805 14.1262V19.5261M18.2805 19.5261L23.2651 27.003M18.2805 19.5261L13.2959 27.003M23.2651 27.003C23.2651 29.7459 21.0234 31.9876 18.2805 31.9876C15.539 31.9876 13.2959 29.7444 13.2959 27.003M23.2651 27.003H13.2959M37.7203 17.4492V22.0184M37.7203 22.0184L42.7049 29.4953M37.7203 22.0184L32.7357 29.4953M42.7049 29.4953C42.7049 32.2382 40.4633 34.4799 37.7203 34.4799C34.9789 34.4799 32.7357 32.2367 32.7357 29.4953M42.7049 29.4953H32.7357M13.2959 13.2954L25.5416 15.3779M30.4592 16.1975L42.705 18.28M35.4773 42.7044H20.5235V40.2121C20.5235 38.8357 21.6394 37.7198 23.0158 37.7198H32.985C34.3614 37.7198 35.4773 38.8357 35.4773 40.2121V42.7044Z" stroke="#0069BE" stroke-width="1.5" stroke-miterlimit="10" stroke-linecap="round" stroke-linejoin="round"/>
</g>
<defs>
<linearGradient id="paint0_linear_1840_30955" x1="28" y1="56.2051" x2="28" y2="0.205078" gradientUnits="userSpaceOnUse">
<stop offset="0.25" stop-color="#AAD6FA" stop-opacity="0"/>
<stop offset="1" stop-color="#AAD6FA"/>
</linearGradient>
<clipPath id="clip0_1840_30955">
<rect width="32" height="32" fill="white" transform="translate(12 12)"/>
</clipPath>
</defs>
</svg>
