<svg width="56" height="57" viewBox="0 0 56 57" fill="none" xmlns="http://www.w3.org/2000/svg">
<g id="Local Icon Library / Export File">
<path id="Shape" d="M51.516 27.9399V14.0412C51.516 11.5492 49.4957 9.52886 47.0036 9.52886H25.0236L21.8329 4.77724C20.9866 3.93094 19.8389 3.45557 18.6421 3.45557H7.87662C5.38456 3.45557 3.36426 5.47587 3.36426 7.96793V39.8896C3.36426 42.3816 5.38456 44.4019 7.87662 44.4019H15.1248M21.0475 54.5234V47.7549C21.0475 40.2786 27.1083 34.2178 34.5846 34.2178H39.097V25.8731L51.9734 37.1348C52.3815 37.5431 52.6341 38.1071 52.6341 38.7302C52.6341 39.3532 52.3815 39.9172 51.9734 40.3255C51.9734 40.3255 44.1255 47.2885 39.097 51.429V43.2425H30.0723C25.088 43.2425 21.0475 49.5392 21.0475 54.5234Z" stroke="black" stroke-width="2" stroke-miterlimit="10" stroke-linecap="round" stroke-linejoin="round"/>
</g>
</svg>
