<svg width="56" height="57" viewBox="0 0 56 57" fill="none" xmlns="http://www.w3.org/2000/svg">
<g id="Local Icon Library / File Upload" clip-path="url(#clip0_2384_7796)">
<path id="Shape" d="M30.6707 1.56689L31.3778 0.859788C31.1903 0.672251 30.9359 0.566895 30.6707 0.566895V1.56689ZM11.97 1.56689V0.566895V1.56689ZM6.62695 6.90995H5.62695H6.62695ZM6.62695 49.6544H5.62695H6.62695ZM49.3714 20.2676H50.3714C50.3714 20.0024 50.266 19.748 50.0785 19.5605L49.3714 20.2676ZM23.7114 30.6742L24.4185 29.9671L23.7114 29.26L23.0043 29.9671L23.7114 30.6742ZM22.7114 49.6544C22.7114 50.2066 23.1591 50.6544 23.7114 50.6544C24.2637 50.6544 24.7114 50.2066 24.7114 49.6544H22.7114ZM15.848 37.1234C15.4575 37.5139 15.4575 38.1471 15.848 38.5376C16.2385 38.9281 16.8717 38.9281 17.2622 38.5376L15.848 37.1234ZM30.1606 38.5376C30.5511 38.9281 31.1843 38.9281 31.5748 38.5376C31.9653 38.1471 31.9653 37.5139 31.5748 37.1234L30.1606 38.5376ZM30.6707 0.566895H11.97V2.56689H30.6707V0.566895ZM11.97 0.566895C10.2877 0.566895 8.67434 1.23518 7.48479 2.42473L8.899 3.83894C9.71348 3.02446 10.8182 2.56689 11.97 2.56689V0.566895ZM7.48479 2.42473C6.29524 3.61428 5.62695 5.22766 5.62695 6.90995H7.62695C7.62695 5.7581 8.08452 4.65342 8.899 3.83894L7.48479 2.42473ZM5.62695 6.90995V49.6544H7.62695V6.90995H5.62695ZM5.62695 49.6544C5.62695 51.3366 6.29524 52.95 7.48479 54.1396L8.899 52.7254C8.08452 51.9109 7.62695 50.8062 7.62695 49.6544H5.62695ZM7.48479 54.1396C8.67434 55.3291 10.2877 55.9974 11.97 55.9974V53.9974C10.8182 53.9974 9.71348 53.5398 8.899 52.7254L7.48479 54.1396ZM11.97 55.9974H44.0283V53.9974H11.97V55.9974ZM44.0283 55.9974C45.7106 55.9974 47.324 55.3291 48.5135 54.1396L47.0993 52.7254C46.2848 53.5398 45.1802 53.9974 44.0283 53.9974V55.9974ZM48.5135 54.1396C49.7031 52.95 50.3714 51.3366 50.3714 49.6544H48.3714C48.3714 50.8062 47.9138 51.9109 47.0993 52.7254L48.5135 54.1396ZM50.3714 49.6544V20.2676H48.3714V49.6544H50.3714ZM50.0785 19.5605L31.3778 0.859788L29.9636 2.274L48.6643 20.9747L50.0785 19.5605ZM29.6707 1.56689V19.2676H31.6707V1.56689H29.6707ZM31.6707 21.2676H49.3714V19.2676H31.6707V21.2676ZM22.7114 30.6742V49.6544H24.7114V30.6742H22.7114ZM23.0043 29.9671L15.848 37.1234L17.2622 38.5376L24.4185 31.3813L23.0043 29.9671ZM23.0043 31.3813L30.1606 38.5376L31.5748 37.1234L24.4185 29.9671L23.0043 31.3813ZM29.6707 19.2676C29.6707 20.3721 30.5661 21.2676 31.6707 21.2676V19.2676H29.6707Z" fill="black"/>
</g>
<defs>
<clipPath id="clip0_2384_7796">
<rect width="56" height="56" fill="white" transform="translate(0 0.281982)"/>
</clipPath>
</defs>
</svg>
