<svg width="56" height="57" viewBox="0 0 56 57" fill="none" xmlns="http://www.w3.org/2000/svg">
<path d="M27.9995 54.0905C15.6804 54.0905 5.69385 44.1039 5.69385 31.7848C5.69385 26.7905 7.39321 22.2281 10.1657 18.5106C10.1855 21.7546 11.134 24.7531 12.6641 27.3675C14.0221 19.3313 22.1251 8.19389 27.9994 2.31958C31.8324 6.15259 41.6775 19.0018 43.3455 27.3477C44.8687 24.7376 45.8133 21.7465 45.8331 18.5106C48.6058 22.2281 50.3052 26.7905 50.3052 31.7848C50.3052 44.1039 40.3186 54.0905 27.9995 54.0905ZM27.9995 54.0905C32.9272 54.0905 36.9219 50.0959 36.9219 45.1682C36.9219 40.2406 27.9996 31.7848 27.9996 31.7848C27.9996 31.7848 19.0773 40.2406 19.0773 45.1682C19.0773 50.0959 23.0719 54.0905 27.9995 54.0905Z" stroke="black" stroke-width="2" stroke-miterlimit="10" stroke-linejoin="round"/>
</svg>
