<svg width="56" height="57" viewBox="0 0 56 57" fill="none" xmlns="http://www.w3.org/2000/svg">
<path d="M32.17 33.6164L38.9713 30.3947C40.9694 29.4483 41.4268 26.808 39.8634 25.2447L37.2366 22.6179C35.6733 21.0545 33.0331 21.5119 32.0866 23.51L28.8648 30.3113M23.8298 35.3456L17.0284 38.5673C15.0303 39.5138 14.573 42.154 16.1364 43.7173L18.7632 46.3442C20.3265 47.9075 22.9668 47.4501 23.9132 45.452L27.1349 38.6508M27.135 30.3112L23.9133 23.5099C22.9669 21.5118 20.3265 21.0546 18.7632 22.6179L16.1364 25.2447C14.573 26.808 15.0303 29.4482 17.0284 30.3947L23.8298 33.6165M28.8648 38.6507L32.0865 45.4521C33.033 47.4502 35.6733 47.9075 37.2366 46.3442L39.8634 43.7173C41.4268 42.1541 40.9695 39.5138 38.9714 38.5673L32.17 35.3456M4.55456 53.8885H51.4452M47.1823 53.8885V22.2837M8.81721 22.2837V53.8885M32.2627 34.481C32.2627 36.8353 30.3542 38.7438 27.9999 38.7438C25.6456 38.7438 23.7371 36.8353 23.7371 34.481C23.7371 32.1268 25.6456 30.2183 27.9999 30.2183C30.3542 30.2183 32.2627 32.1268 32.2627 34.481ZM50.4824 23.836C49.8757 23.836 49.2617 23.6632 48.7179 23.3027L27.9997 9.55564L7.28151 23.3027C5.81053 24.2793 3.82642 23.8771 2.84971 22.4061C1.87353 20.9345 2.27519 18.9505 3.74628 17.9743L26.232 3.05501C27.303 2.34429 28.6965 2.34429 29.7674 3.05501L52.2531 17.9743C53.7242 18.9505 54.1259 20.9345 53.1497 22.4061C52.5342 23.3334 51.5179 23.836 50.4824 23.836Z" stroke="black" stroke-width="2" stroke-miterlimit="10" stroke-linecap="round" stroke-linejoin="round"/>
</svg>
