<svg width="56" height="57" viewBox="0 0 56 57" fill="none" xmlns="http://www.w3.org/2000/svg">
<g id="Local Icon Library / Legands">
<path id="Shape" d="M22.6835 10.0822L51.3261 10.0822M22.6835 29.0001L51.3261 29.0001M22.6835 47.9181L51.3261 47.9181M17.3469 9.74866C17.3469 13.2482 14.51 16.0852 11.0104 16.0852C7.5108 16.0852 4.67383 13.2482 4.67383 9.74866C4.67383 6.24908 7.5108 3.41211 11.0104 3.41211C14.51 3.41211 17.3469 6.24908 17.3469 9.74866ZM17.3469 28.6666C17.3469 32.1662 14.51 35.0031 11.0104 35.0031C7.5108 35.0031 4.67383 32.1662 4.67383 28.6666C4.67383 25.167 7.5108 22.33 11.0104 22.33C14.51 22.33 17.3469 25.167 17.3469 28.6666ZM17.3469 47.5845C17.3469 51.0841 14.51 53.9211 11.0104 53.9211C7.5108 53.9211 4.67383 51.0841 4.67383 47.5845C4.67383 44.0849 7.5108 41.248 11.0104 41.248C14.51 41.248 17.3469 44.0849 17.3469 47.5845Z" stroke="black" stroke-width="2" stroke-linecap="round"/>
</g>
</svg>
