<svg width="56" height="57" viewBox="0 0 56 57" fill="none" xmlns="http://www.w3.org/2000/svg">
<rect y="0.205078" width="56" height="56" rx="10" fill="#F3FAFF"/>
<rect y="0.205078" width="56" height="56" rx="10" fill="url(#paint0_linear_1834_28513)"/>
<path d="M25.3417 18.9129L39.663 18.9129M25.3417 28.3719L39.663 28.3719M25.3417 37.8309L39.663 37.8309M22.6735 18.7462C22.6735 20.4959 21.255 21.9144 19.5052 21.9144C17.7554 21.9144 16.3369 20.4959 16.3369 18.7462C16.3369 16.9964 17.7554 15.5779 19.5052 15.5779C21.255 15.5779 22.6735 16.9964 22.6735 18.7462ZM22.6735 28.2051C22.6735 29.9549 21.255 31.3734 19.5052 31.3734C17.7554 31.3734 16.3369 29.9549 16.3369 28.2051C16.3369 26.4553 17.7554 25.0368 19.5052 25.0368C21.255 25.0368 22.6735 26.4553 22.6735 28.2051ZM22.6735 37.6641C22.6735 39.4139 21.255 40.8324 19.5052 40.8324C17.7554 40.8324 16.3369 39.4139 16.3369 37.6641C16.3369 35.9143 17.7554 34.4958 19.5052 34.4958C21.255 34.4958 22.6735 35.9143 22.6735 37.6641Z" stroke="#0069BE" stroke-linecap="round"/>
<defs>
<linearGradient id="paint0_linear_1834_28513" x1="28" y1="56.2051" x2="28" y2="0.205078" gradientUnits="userSpaceOnUse">
<stop offset="0.25" stop-color="#AAD6FA" stop-opacity="0"/>
<stop offset="1" stop-color="#AAD6FA"/>
</linearGradient>
</defs>
</svg>
