<svg width="56" height="57" viewBox="0 0 56 57" fill="none" xmlns="http://www.w3.org/2000/svg">
<path d="M25.1496 15.4577V19.0933H40.7829C45.8027 19.0933 49.872 23.1626 49.872 28.1824V31.818H38.965V28.1824H25.1496V46.4808H8.78923V15.4577M25.1496 15.4577H8.78923M25.1496 15.4577L25.1496 11.822L47.1916 8.55657C48.6271 8.34388 49.6902 7.11167 49.6902 5.66051C49.6902 4.04365 48.3794 2.73291 46.7626 2.73291H17.8783C12.8585 2.73291 8.78923 6.80219 8.78923 11.822V15.4577M27.8763 46.4055H6.0625V53.6768H27.8763V46.4055ZM44.4187 37.4533L39.6928 45.3298C37.4887 49.0033 40.1347 53.6768 44.4187 53.6768C48.7027 53.6768 51.3488 49.0033 49.1446 45.3298L44.4187 37.4533Z" stroke="black" stroke-width="2" stroke-miterlimit="10" stroke-linecap="round" stroke-linejoin="round"/>
</svg>
