<svg width="56" height="57" viewBox="0 0 56 57" fill="none" xmlns="http://www.w3.org/2000/svg">
<g id="Local Icon Library / Product Comparison">
<path id="Shape" d="M28.0005 11.9259C30.4092 11.9259 32.362 9.97318 32.362 7.56438C32.362 5.15559 30.4092 3.20288 28.0005 3.20288C25.5917 3.20288 23.6389 5.15559 23.6389 7.56438C23.6389 9.97318 25.5917 11.9259 28.0005 11.9259ZM28.0005 11.9259V45.9456M10.9906 4.65668V14.1066M10.9906 14.1066L19.7136 27.1912M10.9906 14.1066L2.26758 27.1912M19.7136 27.1912C19.7136 31.9913 15.7907 35.9142 10.9906 35.9142C6.19304 35.9142 2.26758 31.9887 2.26758 27.1912M19.7136 27.1912H2.26758M45.0103 10.4721V18.4681M45.0103 18.4681L53.7333 31.5527M45.0103 18.4681L36.2873 31.5527M53.7333 31.5527C53.7333 36.3528 49.8105 40.2757 45.0103 40.2757C40.2128 40.2757 36.2873 36.3502 36.2873 31.5527M53.7333 31.5527H36.2873M2.26758 3.20288L23.6976 6.84724M32.3034 8.28151L53.7334 11.9259M41.085 54.6686H14.9159V50.3071C14.9159 47.8984 16.8687 45.9456 19.2774 45.9456H36.7235C39.1322 45.9456 41.085 47.8984 41.085 50.3071V54.6686Z" stroke="black" stroke-width="2" stroke-miterlimit="10" stroke-linecap="round" stroke-linejoin="round"/>
</g>
</svg>
