<svg width="56" height="57" viewBox="0 0 56 57" fill="none" xmlns="http://www.w3.org/2000/svg">
<rect y="0.205078" width="56" height="56" rx="10" fill="#F3FAFF"/>
<rect y="0.205078" width="56" height="56" rx="10" fill="url(#paint0_linear_1840_30948)"/>
<g clip-path="url(#clip0_1840_30948)">
<path d="M26.4977 36.6648C26.4977 36.085 26.4595 35.5051 26.0797 35.1252C25.8957 34.9412 25.6776 34.7912 25.4354 34.6851C24.435 34.248 23.602 34.818 23.602 35.9097V37.6029C23.602 39.5053 24.1437 41.0015 24.6721 42.0076C24.9452 42.5277 25.1627 43.0725 25.3235 43.6333H32.6863C32.8554 42.8447 33.1028 42.0777 33.4213 41.4659C33.7832 40.7706 34.1496 39.8455 34.3414 38.7177C34.3919 38.4703 34.4243 38.175 34.445 37.857C34.5341 36.4921 33.4543 35.335 32.0864 35.335H29.7871V29.5937C29.7871 28.7484 29.1222 28.0361 28.2779 28.0165C27.8362 28.0062 27.4357 28.181 27.1476 28.4691C26.8677 28.7489 26.6946 29.1355 26.6946 29.5623L26.4977 36.6648ZM26.4977 36.6648V38.392M28.3327 14.5908L30.0661 18.1031L33.9422 18.6664L31.1374 21.4003L31.7996 25.2607L28.3327 23.4381L24.8658 25.2607L25.528 21.4003L22.7232 18.6664L26.5993 18.1031L28.3327 14.5908ZM16.46 30.3259L18.5143 25.6039L21.7132 29.6394L16.46 30.3259ZM37.0628 25.2606L40.2043 28.4021L37.0628 31.5435L33.9214 28.4021L37.0628 25.2606Z" stroke="#0069BE" stroke-miterlimit="10" stroke-linecap="round" stroke-linejoin="round"/>
</g>
<defs>
<linearGradient id="paint0_linear_1840_30948" x1="28" y1="56.2051" x2="28" y2="0.205078" gradientUnits="userSpaceOnUse">
<stop offset="0.25" stop-color="#AAD6FA" stop-opacity="0"/>
<stop offset="1" stop-color="#AAD6FA"/>
</linearGradient>
<clipPath id="clip0_1840_30948">
<rect width="32" height="32" fill="white" transform="translate(12.333 12)"/>
</clipPath>
</defs>
</svg>
