<svg width="56" height="57" viewBox="0 0 56 57" fill="none" xmlns="http://www.w3.org/2000/svg">
<rect y="0.205078" width="56" height="56" rx="10" fill="#F3FAFF"/>
<rect y="0.205078" width="56" height="56" rx="10" fill="url(#paint0_linear_1834_28488)"/>
<path d="M27.8956 13.6108L28.2491 13.2573C28.1553 13.1635 28.0282 13.1108 27.8956 13.1108V13.6108ZM19.8816 13.6108V13.1108V13.6108ZM17.5918 15.9006H17.0918H17.5918ZM35.9096 21.6248H36.4096C36.4096 21.4922 36.3569 21.3651 36.2631 21.2713L35.9096 21.6248ZM38.4077 20.4498H38.9077C38.9077 20.3147 38.8531 20.1854 38.7562 20.0912L38.4077 20.4498ZM32.6028 14.8072L32.9513 14.4486L32.9458 14.4434L32.6028 14.8072ZM28.7126 13.9533C28.4365 13.9533 28.2126 14.1771 28.2126 14.4533C28.2126 14.7294 28.4365 14.9533 28.7126 14.9533V13.9533ZM35.4096 26.6469C35.4096 26.923 35.6334 27.1469 35.9096 27.1469C36.1857 27.1469 36.4096 26.923 36.4096 26.6469H35.4096ZM17.0918 26.6469C17.0918 26.923 17.3157 27.1469 17.5918 27.1469C17.868 27.1469 18.0918 26.923 18.0918 26.6469H17.0918ZM37.9077 26.6469C37.9077 26.923 38.1316 27.1469 38.4077 27.1469C38.6838 27.1469 38.9077 26.923 38.9077 26.6469H37.9077ZM27.8956 13.1108H19.8816V14.1108H27.8956V13.1108ZM19.8816 13.1108C19.1417 13.1108 18.4321 13.4048 17.9089 13.9279L18.616 14.635C18.9517 14.2994 19.4069 14.1108 19.8816 14.1108V13.1108ZM17.9089 13.9279C17.3858 14.4511 17.0918 15.1607 17.0918 15.9006H18.0918C18.0918 15.4259 18.2804 14.9707 18.616 14.635L17.9089 13.9279ZM36.2631 21.2713L28.2491 13.2573L27.542 13.9644L35.556 21.9784L36.2631 21.2713ZM27.3956 13.6108V20.3263H28.3956V13.6108H27.3956ZM29.1941 22.1248H35.9096V21.1248H29.1941V22.1248ZM27.3956 20.3263C27.3956 21.3196 28.2008 22.1248 29.1941 22.1248V21.1248C28.7531 21.1248 28.3956 20.7673 28.3956 20.3263H27.3956ZM32.2543 15.1657L38.0592 20.8083L38.7562 20.0912L32.9513 14.4486L32.2543 15.1657ZM31.7117 13.9533H28.7126V14.9533H31.7117V13.9533ZM32.9458 14.4434C32.6121 14.1286 32.1706 13.9533 31.7117 13.9533V14.9533C31.9155 14.9533 32.1115 15.0311 32.2597 15.1709L32.9458 14.4434ZM36.4096 26.6469V21.6248H35.4096V26.6469H36.4096ZM17.0918 15.9006V26.6469H18.0918V15.9006H17.0918ZM38.9077 26.6469V20.4498H37.9077V26.6469H38.9077ZM14.7353 27.1469H41.2651V26.1469H14.7353V27.1469ZM42.2197 28.1014V40.9346H43.2197V28.1014H42.2197ZM41.2651 41.8892H14.7353V42.8892H41.2651V41.8892ZM13.7808 40.9346V28.1014H12.7808V40.9346H13.7808ZM14.7353 41.8892C14.2081 41.8892 13.7808 41.4618 13.7808 40.9346H12.7808C12.7808 42.0141 13.6558 42.8892 14.7353 42.8892V41.8892ZM42.2197 40.9346C42.2197 41.4618 41.7923 41.8892 41.2651 41.8892V42.8892C42.3446 42.8892 43.2197 42.0141 43.2197 40.9346H42.2197ZM41.2651 27.1469C41.7923 27.1469 42.2197 27.5742 42.2197 28.1014H43.2197C43.2197 27.022 42.3446 26.1469 41.2651 26.1469V27.1469ZM14.7353 26.1469C13.6558 26.1469 12.7808 27.022 12.7808 28.1014H13.7808C13.7808 27.5742 14.2081 27.1469 14.7353 27.1469V26.1469Z" fill="#0069BE"/>
<defs>
<linearGradient id="paint0_linear_1834_28488" x1="28" y1="56.2051" x2="28" y2="0.205078" gradientUnits="userSpaceOnUse">
<stop offset="0.25" stop-color="#AAD6FA" stop-opacity="0"/>
<stop offset="1" stop-color="#AAD6FA"/>
</linearGradient>
</defs>
</svg>
