<svg width="56" height="57" viewBox="0 0 56 57" fill="none" xmlns="http://www.w3.org/2000/svg">
<rect y="0.205078" width="56" height="56" rx="10" fill="#F3FAFF"/>
<rect y="0.205078" width="56" height="56" rx="10" fill="url(#paint0_linear_1834_28507)"/>
<g clip-path="url(#clip0_1834_28507)">
<path d="M27.2842 15.9H23.0209V40.1004H27.2842M30.5765 18.604V15.9786M30.5765 15.9786V15.3076C30.5765 14.2283 31.4514 13.3533 32.5308 13.3533C33.6101 13.3533 34.4851 14.2283 34.4851 15.3076V15.9786M30.5765 15.9786H34.4851M34.4851 15.9786V18.604M30.5765 42.6465V40.0211M30.5765 40.0211V39.35C30.5765 38.2707 31.4514 37.3957 32.5308 37.3957C33.6101 37.3957 34.4851 38.2707 34.4851 39.35V40.0211M30.5765 40.0211H34.4851M34.4851 40.0211V42.6465M23.1367 28.0559H32.9556M32.9556 28.0559L29.8558 24.9561M32.9556 28.0559L29.8558 31.1557M14.9375 34.527H41.0617C41.8651 34.527 42.5163 33.8758 42.5163 33.0725V22.9279C42.5163 22.1245 41.8651 21.4733 41.0617 21.4733H14.9375C14.1341 21.4733 13.4829 22.1245 13.4829 22.9279V33.0725C13.4829 33.8758 14.1341 34.527 14.9375 34.527Z" stroke="#0069BE" stroke-linecap="round" stroke-linejoin="round"/>
</g>
<defs>
<linearGradient id="paint0_linear_1834_28507" x1="28" y1="56.2051" x2="28" y2="0.205078" gradientUnits="userSpaceOnUse">
<stop offset="0.25" stop-color="#AAD6FA" stop-opacity="0"/>
<stop offset="1" stop-color="#AAD6FA"/>
</linearGradient>
<clipPath id="clip0_1834_28507">
<rect width="32" height="32" fill="white" transform="translate(12 12)"/>
</clipPath>
</defs>
</svg>
