<svg width="56" height="57" viewBox="0 0 56 57" fill="none" xmlns="http://www.w3.org/2000/svg">
<g id="Local Icon Library / Section Viewer">
<path id="Shape" d="M26.7475 7.4147H19.2867V49.7655H26.7475M32.5089 12.1468V7.55241M32.5089 7.55241V6.37808C32.5089 4.48923 34.0401 2.95801 35.929 2.95801C37.8178 2.95801 39.3491 4.48923 39.3491 6.37808V7.55241M32.5089 7.55241H39.3491M39.3491 7.55241V12.1468M32.5089 54.2211V49.6267M32.5089 49.6267V48.4523C32.5089 46.5635 34.0401 45.0323 35.929 45.0323C37.8178 45.0323 39.3491 46.5635 39.3491 48.4523V49.6267M32.5089 49.6267H39.3491M39.3491 49.6267V54.2211M19.4893 28.6875H36.6724M36.6724 28.6875L31.2477 23.2629M36.6724 28.6875L31.2477 34.1122M5.14067 40.0121H50.8582C52.264 40.0121 53.4036 38.8724 53.4036 37.4666V19.7136C53.4036 18.3077 52.264 17.1681 50.8582 17.1681H5.14067C3.73485 17.1681 2.59521 18.3077 2.59521 19.7136V37.4666C2.59521 38.8724 3.73485 40.0121 5.14067 40.0121Z" stroke="black" stroke-width="2" stroke-linecap="round" stroke-linejoin="round"/>
</g>
</svg>
