<svg width="56" height="57" viewBox="0 0 56 57" fill="none" xmlns="http://www.w3.org/2000/svg">
<rect y="0.205078" width="56" height="56" rx="10" fill="#F3FAFF"/>
<rect y="0.205078" width="56" height="56" rx="10" fill="url(#paint0_linear_1623_39477)"/>
<g clip-path="url(#clip0_1623_39477)">
<path d="M42.5946 18.353H27.0107C24.9615 18.353 23.3003 16.6918 23.3003 14.6426V13.4058M18.353 28H20.8266M20.8266 28C20.8266 29.3662 21.9341 30.4737 23.3003 30.4737C24.6664 30.4737 25.7739 29.3662 25.7739 28M20.8266 28C20.8266 26.6339 21.9341 25.5264 23.3003 25.5264C24.6664 25.5264 25.7739 26.6339 25.7739 28M25.7739 28H37.6472M18.353 35.4208H30.2262M30.2262 35.4208C30.2262 36.787 31.3337 37.8945 32.6998 37.8945C34.0659 37.8945 35.1734 36.787 35.1734 35.4208M30.2262 35.4208C30.2262 34.0547 31.3337 32.9472 32.6998 32.9472C34.0659 32.9472 35.1734 34.0547 35.1734 35.4208M35.1734 35.4208H37.647M38.8839 42.5945H17.1162C15.067 42.5945 13.4058 40.9333 13.4058 38.8841V17.1164C13.4058 15.0672 15.067 13.406 17.1162 13.406H38.8839C40.9331 13.406 42.5943 15.0672 42.5943 17.1164V38.8841C42.5943 40.9333 40.9331 42.5945 38.8839 42.5945Z" stroke="#0069BE" stroke-width="1.5" stroke-miterlimit="10" stroke-linecap="round" stroke-linejoin="round"/>
</g>
<defs>
<linearGradient id="paint0_linear_1623_39477" x1="28" y1="56.2051" x2="28" y2="0.205078" gradientUnits="userSpaceOnUse">
<stop offset="0.25" stop-color="#AAD6FA" stop-opacity="0"/>
<stop offset="1" stop-color="#AAD6FA"/>
</linearGradient>
<clipPath id="clip0_1623_39477">
<rect width="32" height="32" fill="white" transform="translate(12 12)"/>
</clipPath>
</defs>
</svg>
