<svg width="56" height="57" viewBox="0 0 56 57" fill="none" xmlns="http://www.w3.org/2000/svg">
<rect y="0.205078" width="56" height="56" rx="10" fill="#F3FAFF"/>
<rect y="0.205078" width="56" height="56" rx="10" fill="url(#paint0_linear_1834_28519)"/>
<path d="M31.2804 13.9343L31.6339 13.5808C31.5402 13.487 31.413 13.4343 31.2804 13.4343V13.9343ZM15.735 13.9343V14.4343H15.735L15.735 13.9343ZM13.2329 16.4364H12.7329H13.2329ZM13.2329 36.4532H12.7329H13.2329ZM37.5356 38.9552V38.4552V38.9552ZM40.0377 22.6916H40.5377C40.5377 22.559 40.485 22.4319 40.3912 22.3381L40.0377 22.6916ZM17.5932 39.3699L17.0932 39.3697V39.3699H17.5932ZM20.0953 42.0658V42.5658V42.0658ZM39.0694 42.0658V41.5658V42.0658ZM42.7675 21.4076H43.2675C43.2675 21.2725 43.2129 21.1432 43.116 21.049L42.7675 21.4076ZM36.4242 15.2416L36.7727 14.8831L36.7672 14.8779L36.4242 15.2416ZM32.1732 14.3549C31.897 14.3549 31.6732 14.5788 31.6732 14.8549C31.6732 15.131 31.897 15.3549 32.1732 15.3549V14.3549ZM17.3071 19.2282V18.7282H16.8071V19.2282H17.3071ZM17.3071 34.6207H16.8071V35.1207H17.3071V34.6207ZM23.6523 19.2282H24.1523V18.7282H23.6523V19.2282ZM36.7645 26.7176H37.2645V26.2176H36.7645V26.7176ZM36.7645 34.6207V35.1207H37.2645V34.6207H36.7645ZM31.2804 13.4343L15.735 13.4343L15.735 14.4343L31.2804 14.4343V13.4343ZM15.735 13.4343C14.9388 13.4343 14.1752 13.7506 13.6122 14.3136L14.3193 15.0207C14.6948 14.6453 15.204 14.4343 15.735 14.4343V13.4343ZM13.6122 14.3136C13.0492 14.8766 12.7329 15.6402 12.7329 16.4364H13.7329C13.7329 15.9054 13.9438 15.3962 14.3193 15.0207L13.6122 14.3136ZM12.7329 16.4364V36.4532H13.7329V16.4364H12.7329ZM12.7329 36.4532C12.7329 37.2494 13.0492 38.013 13.6122 38.576L14.3193 37.8689C13.9438 37.4934 13.7329 36.9841 13.7329 36.4532H12.7329ZM13.6122 38.576C14.1752 39.139 14.9388 39.4552 15.735 39.4552V38.4552C15.204 38.4552 14.6948 38.2443 14.3193 37.8689L13.6122 38.576ZM37.5356 39.4552C38.3318 39.4552 39.0954 39.139 39.6584 38.576L38.9513 37.8688C38.5758 38.2443 38.0666 38.4552 37.5356 38.4552V39.4552ZM39.6584 38.576C40.2214 38.013 40.5377 37.2494 40.5377 36.4532H39.5377C39.5377 36.9841 39.3267 37.4934 38.9513 37.8688L39.6584 38.576ZM40.5377 36.4532V22.6916H39.5377V36.4532H40.5377ZM40.3912 22.3381L31.6339 13.5808L30.9268 14.2879L39.6841 23.0452L40.3912 22.3381ZM30.7804 13.9343V21.2726H31.7804V13.9343H30.7804ZM32.6994 23.1916H40.0377V22.1916H32.6994V23.1916ZM30.7804 21.2726C30.7804 22.3325 31.6395 23.1916 32.6994 23.1916V22.1916C32.1918 22.1916 31.7804 21.7802 31.7804 21.2726H30.7804ZM17.0932 39.3699C17.0932 40.1278 17.3855 41.0995 17.9725 41.6865L18.6796 40.9794C18.3281 40.6279 18.0932 39.9392 18.0932 39.3699H17.0932ZM17.9725 41.6865C18.5355 42.2495 19.2991 42.5658 20.0953 42.5658V41.5658C19.5643 41.5658 19.0551 41.3549 18.6796 40.9794L17.9725 41.6865ZM20.0953 42.5658L39.0694 42.5658V41.5658L20.0953 41.5658L20.0953 42.5658ZM43.2675 37.6149V21.4076H42.2675V37.6149H43.2675ZM36.0757 15.6002L42.419 21.7661L43.116 21.049L36.7727 14.8831L36.0757 15.6002ZM35.4505 14.3549H32.1732V15.3549H35.4505V14.3549ZM36.7672 14.8779C36.4111 14.542 35.9401 14.3549 35.4505 14.3549V15.3549C35.685 15.3549 35.9105 15.4445 36.0811 15.6054L36.7672 14.8779ZM39.0694 42.5658C40.4113 42.5658 41.478 41.9597 42.1962 41.0271C42.9059 40.1057 43.2675 38.88 43.2675 37.6149H42.2675C42.2675 38.7009 41.9556 39.7007 41.404 40.4169C40.8609 41.122 40.0786 41.5658 39.0694 41.5658V42.5658ZM15.735 39.4552H17.5934V38.4552H15.735V39.4552ZM17.5934 39.4552L37.5356 39.4552V38.4552L17.5934 38.4552L17.5934 39.4552ZM18.0932 39.3701L18.0934 38.9555L17.0934 38.955L17.0932 39.3697L18.0932 39.3701ZM16.8071 19.2282V23.0654H17.8071V19.2282H16.8071ZM16.8071 23.0654V26.7176H17.8071V23.0654H16.8071ZM16.8071 26.7176V30.6692H17.8071V26.7176H16.8071ZM16.8071 30.6692V34.6207H17.8071V30.6692H16.8071ZM23.1523 19.2282V23.0654H24.1523V19.2282H23.1523ZM23.1523 23.0654V26.7176H24.1523V23.0654H23.1523ZM23.1523 26.7176V30.6692H24.1523V26.7176H23.1523ZM23.1523 30.6692V34.6207H24.1523V30.6692H23.1523ZM30.0244 26.7176V30.6692H31.0244V26.7176H30.0244ZM30.0244 30.6692V34.6207H31.0244V30.6692H30.0244ZM36.2645 26.7176V30.6692H37.2645V26.7176H36.2645ZM36.2645 30.6692V34.6207H37.2645V30.6692H36.2645ZM17.3071 27.2176H23.6523V26.2176H17.3071V27.2176ZM23.6523 27.2176H30.5244V26.2176H23.6523V27.2176ZM30.5244 27.2176H36.7645V26.2176H30.5244V27.2176ZM17.3071 31.1692H23.6523V30.1692H17.3071V31.1692ZM23.6523 31.1692H30.5244V30.1692H23.6523V31.1692ZM30.5244 31.1692L36.7645 31.1692V30.1692L30.5244 30.1692V31.1692ZM17.3071 35.1207H23.6523V34.1207H17.3071V35.1207ZM23.6523 35.1207H30.5244V34.1207H23.6523V35.1207ZM30.5244 35.1207H36.7645V34.1207H30.5244V35.1207ZM17.3071 23.5654L23.6523 23.5654V22.5654L17.3071 22.5654L17.3071 23.5654ZM17.3071 19.7282H23.6523V18.7282H17.3071V19.7282Z" fill="#0069BE"/>
<defs>
<linearGradient id="paint0_linear_1834_28519" x1="28" y1="56.2051" x2="28" y2="0.205078" gradientUnits="userSpaceOnUse">
<stop offset="0.25" stop-color="#AAD6FA" stop-opacity="0"/>
<stop offset="1" stop-color="#AAD6FA"/>
</linearGradient>
</defs>
</svg>
