<svg width="56" height="57" viewBox="0 0 56 57" fill="none" xmlns="http://www.w3.org/2000/svg">
<g id="Local Icon Library / Sheet Generation">
<path id="Shape" d="M33.7403 4.12842L34.4474 3.42131C34.2598 3.23377 34.0055 3.12842 33.7403 3.12842V4.12842ZM6.53589 4.12843V5.12843H6.53589L6.53589 4.12843ZM2.15723 8.50709H1.15723H2.15723ZM2.15723 43.5364H1.15723H2.15723ZM44.6869 47.915V46.915V47.915ZM49.0656 19.4537H50.0656C50.0656 19.1885 49.9602 18.9342 49.7727 18.7466L49.0656 19.4537ZM9.78777 48.6407L8.78777 48.6402V48.6407H9.78777ZM14.1664 53.3585V54.3585V53.3585ZM47.371 53.3585V52.3585V53.3585ZM53.8428 17.2066H54.8428C54.8428 16.9364 54.7335 16.6778 54.5398 16.4895L53.8428 17.2066ZM42.7419 6.41619L43.4389 5.69913L43.4335 5.69389L43.4281 5.68873L42.7419 6.41619ZM35.3027 4.73941C34.7504 4.73941 34.3027 5.18713 34.3027 5.73941C34.3027 6.2917 34.7504 6.73941 35.3027 6.73941V4.73941ZM9.28705 13.3927V12.3927H8.28705V13.3927H9.28705ZM9.28705 40.3296H8.28705V41.3296H9.28705V40.3296ZM20.3911 13.3927H21.3911V12.3927H20.3911V13.3927ZM43.3375 26.4992H44.3375V25.4992H43.3375V26.4992ZM43.3375 40.3296V41.3296H44.3375V40.3296H43.3375ZM33.7403 3.12842L6.53589 3.12843L6.53589 5.12843L33.7403 5.12842L33.7403 3.12842ZM6.53589 3.12843C5.10938 3.12843 3.74129 3.69511 2.7326 4.7038L4.14681 6.11802C4.78043 5.4844 5.63981 5.12843 6.53589 5.12843V3.12843ZM2.7326 4.7038C1.7239 5.7125 1.15723 7.08058 1.15723 8.50709H3.15723C3.15723 7.61102 3.51319 6.75164 4.14681 6.11802L2.7326 4.7038ZM1.15723 8.50709V43.5364H3.15723V8.50709H1.15723ZM1.15723 43.5364C1.15723 44.9629 1.7239 46.331 2.7326 47.3397L4.14681 45.9255C3.51319 45.2918 3.15723 44.4325 3.15723 43.5364H1.15723ZM2.7326 47.3397C3.7413 48.3484 5.10938 48.915 6.53589 48.915V46.915C5.63981 46.915 4.78043 46.5591 4.14681 45.9255L2.7326 47.3397ZM44.6869 48.915C46.1134 48.915 47.4815 48.3484 48.4902 47.3397L47.076 45.9254C46.4424 46.5591 45.583 46.915 44.6869 46.915V48.915ZM48.4902 47.3397C49.4989 46.331 50.0656 44.9629 50.0656 43.5364H48.0656C48.0656 44.4324 47.7096 45.2918 47.076 45.9254L48.4902 47.3397ZM50.0656 43.5364V19.4537H48.0656V43.5364H50.0656ZM49.7727 18.7466L34.4474 3.42131L33.0332 4.83552L48.3585 20.1608L49.7727 18.7466ZM32.7403 4.12842V16.9704H34.7403V4.12842H32.7403ZM36.2236 20.4537H49.0656V18.4537H36.2236V20.4537ZM32.7403 16.9704C32.7403 18.8942 34.2998 20.4537 36.2236 20.4537V18.4537C35.4044 18.4537 34.7403 17.7896 34.7403 16.9704H32.7403ZM8.78777 48.6407C8.78777 49.9906 9.30649 51.7265 10.3631 52.7831L11.7774 51.3689C11.1917 50.7833 10.7878 49.6133 10.7878 48.6407H8.78777ZM10.3631 52.7831C11.3718 53.7918 12.7399 54.3585 14.1664 54.3585V52.3585C13.2703 52.3585 12.411 52.0026 11.7774 51.3689L10.3631 52.7831ZM14.1664 54.3585L47.371 54.3585V52.3585L14.1664 52.3585L14.1664 54.3585ZM54.8428 45.5694V17.2066H52.8428V45.5694H54.8428ZM42.0449 7.13326L53.1458 17.9236L54.5398 16.4895L43.4389 5.69913L42.0449 7.13326ZM41.038 4.73941H35.3027V6.73941H41.038V4.73941ZM43.4281 5.68873C42.7816 5.07902 41.9266 4.73941 41.038 4.73941V6.73941C41.4164 6.73941 41.7805 6.88403 42.0558 7.14366L43.4281 5.68873ZM47.371 54.3585C49.7609 54.3585 51.6633 53.2775 52.9421 51.6171C54.2038 49.9789 54.8428 47.8058 54.8428 45.5694H52.8428C52.8428 47.4476 52.3031 49.169 51.3576 50.3967C50.4291 51.6022 49.0955 52.3585 47.371 52.3585V54.3585ZM6.53589 48.915H9.78811V46.915H6.53589V48.915ZM9.78811 48.915L44.6869 48.915V46.915L9.78811 46.915L9.78811 48.915ZM10.7878 48.6411L10.7881 47.9155L8.78811 47.9146L8.78777 48.6402L10.7878 48.6411ZM8.28705 13.3927V20.1078H10.2871V13.3927H8.28705ZM8.28705 20.1078V26.4992H10.2871V20.1078H8.28705ZM8.28705 26.4992V33.4144H10.2871V26.4992H8.28705ZM8.28705 33.4144V40.3296H10.2871V33.4144H8.28705ZM19.3911 13.3927V20.1078H21.3911V13.3927H19.3911ZM19.3911 20.1078V26.4992H21.3911V20.1078H19.3911ZM19.3911 26.4992V33.4144H21.3911V26.4992H19.3911ZM19.3911 33.4144V40.3296H21.3911V33.4144H19.3911ZM31.4174 26.4992V33.4144H33.4174V26.4992H31.4174ZM31.4174 33.4144V40.3296H33.4174V33.4144H31.4174ZM42.3375 26.4992V33.4144H44.3375V26.4992H42.3375ZM42.3375 33.4144V40.3296H44.3375V33.4144H42.3375ZM9.28705 27.4992H20.3911V25.4992H9.28705V27.4992ZM20.3911 27.4992H32.4174V25.4992H20.3911V27.4992ZM32.4174 27.4992H43.3375V25.4992H32.4174V27.4992ZM9.28705 34.4144H20.3911V32.4144H9.28705V34.4144ZM20.3911 34.4144H32.4174V32.4144H20.3911V34.4144ZM32.4174 34.4144L43.3375 34.4144L43.3375 32.4144L32.4174 32.4144L32.4174 34.4144ZM9.28705 41.3296H20.3911V39.3296H9.28705V41.3296ZM20.3911 41.3296H32.4174V39.3296H20.3911V41.3296ZM32.4174 41.3296H43.3375V39.3296H32.4174V41.3296ZM9.28705 21.1078H20.3911L20.3911 19.1078L9.28705 19.1078V21.1078ZM9.28705 14.3927H20.3911V12.3927H9.28705V14.3927Z" fill="black"/>
</g>
</svg>
