<svg width="56" height="57" viewBox="0 0 56 57" fill="none" xmlns="http://www.w3.org/2000/svg">
<rect y="0.205078" width="56" height="56" rx="10" fill="#F3FAFF"/>
<rect y="0.205078" width="56" height="56" rx="10" fill="url(#paint0_linear_1840_29689)"/>
<g clip-path="url(#clip0_1840_29689)">
<path d="M29.5264 12.7343L30.0567 12.2039C29.9161 12.0633 29.7253 11.9843 29.5264 11.9843V12.7343ZM18.8403 12.7343V11.9843V12.7343ZM15.7871 15.7874H15.0371H15.7871ZM15.7871 40.2128H15.0371H15.7871ZM40.2125 23.4204H40.9625C40.9625 23.2214 40.8835 23.0307 40.7428 22.89L40.2125 23.4204ZM25.5496 29.367L26.08 28.8367L25.5496 28.3063L25.0193 28.8367L25.5496 29.367ZM24.7996 40.2128C24.7996 40.627 25.1354 40.9628 25.5496 40.9628C25.9639 40.9628 26.2996 40.627 26.2996 40.2128H24.7996ZM20.93 32.926C20.6371 33.2189 20.6371 33.6937 20.93 33.9866C21.2229 34.2795 21.6978 34.2795 21.9907 33.9866L20.93 32.926ZM29.1086 33.9866C29.4015 34.2795 29.8764 34.2795 30.1693 33.9866C30.4622 33.6937 30.4622 33.2189 30.1693 32.926L29.1086 33.9866ZM29.5264 11.9843H18.8403V13.4843H29.5264V11.9843ZM18.8403 11.9843C17.8316 11.9843 16.8643 12.3849 16.151 13.0982L17.2117 14.1588C17.6436 13.7269 18.2294 13.4843 18.8403 13.4843V11.9843ZM16.151 13.0982C15.4378 13.8114 15.0371 14.7788 15.0371 15.7874H16.5371C16.5371 15.1766 16.7798 14.5908 17.2117 14.1588L16.151 13.0982ZM15.0371 15.7874V40.2128H16.5371V15.7874H15.0371ZM15.0371 40.2128C15.0371 41.2215 15.4378 42.1888 16.151 42.9021L17.2117 41.8414C16.7798 41.4095 16.5371 40.8236 16.5371 40.2128H15.0371ZM16.151 42.9021C16.8643 43.6153 17.8316 44.016 18.8403 44.016V42.516C18.2294 42.516 17.6436 42.2733 17.2117 41.8414L16.151 42.9021ZM18.8403 44.016H37.1593V42.516H18.8403V44.016ZM37.1593 44.016C38.168 44.016 39.1353 43.6153 39.8486 42.9021L38.7879 41.8414C38.356 42.2733 37.7702 42.516 37.1593 42.516V44.016ZM39.8486 42.9021C40.5618 42.1888 40.9625 41.2215 40.9625 40.2128H39.4625C39.4625 40.8236 39.2198 41.4095 38.7879 41.8414L39.8486 42.9021ZM40.9625 40.2128V23.4204H39.4625V40.2128H40.9625ZM40.7428 22.89L30.0567 12.2039L28.9961 13.2646L39.6822 23.9507L40.7428 22.89ZM28.7764 12.7343V22.4204H30.2764V12.7343H28.7764ZM30.5264 24.1704H40.2125V22.6704H30.5264V24.1704ZM24.7996 29.367V40.2128H26.2996V29.367H24.7996ZM25.0193 28.8367L20.93 32.926L21.9907 33.9866L26.08 29.8973L25.0193 28.8367ZM25.0193 29.8973L29.1086 33.9866L30.1693 32.926L26.08 28.8367L25.0193 29.8973ZM28.7764 22.4204C28.7764 23.3869 29.5599 24.1704 30.5264 24.1704V22.6704C30.3883 22.6704 30.2764 22.5584 30.2764 22.4204H28.7764Z" fill="#0069BE"/>
</g>
<defs>
<linearGradient id="paint0_linear_1840_29689" x1="28" y1="56.2051" x2="28" y2="0.205078" gradientUnits="userSpaceOnUse">
<stop offset="0.25" stop-color="#AAD6FA" stop-opacity="0"/>
<stop offset="1" stop-color="#AAD6FA"/>
</linearGradient>
<clipPath id="clip0_1840_29689">
<rect width="32" height="32" fill="white" transform="translate(12 12)"/>
</clipPath>
</defs>
</svg>
