<svg width="32" height="32" viewBox="0 0 32 32" fill="none" xmlns="http://www.w3.org/2000/svg">
<path d="M0 6C0 2.68629 2.68629 0 6 0H26C29.3137 0 32 2.68629 32 6V26C32 29.3137 29.3137 32 26 32H6C2.68629 32 0 29.3137 0 26V6Z" fill="#0083EE"/>
<path d="M8.05627 10.2229V14.5558M8.05627 14.5558H12.3892M8.05627 14.5558L11.4071 11.4072C12.1832 10.6307 13.1434 10.0634 14.1981 9.75838C15.2527 9.45332 16.3675 9.42039 17.4383 9.66268C18.5092 9.90497 19.5012 10.4146 20.3218 11.1439C21.1424 11.8733 21.7649 12.7987 22.1311 13.8337M23.9437 21.7774V17.4444M23.9437 17.4444H19.6108M23.9437 17.4444L20.5929 20.5931C19.8168 21.3696 18.8566 21.9368 17.8019 22.2419C16.7473 22.547 15.6325 22.5799 14.5617 22.3376C13.4908 22.0953 12.4988 21.5857 11.6782 20.8563C10.8576 20.127 10.2351 19.2016 9.86889 18.1666" stroke="white" stroke-width="1.5" stroke-linecap="round" stroke-linejoin="round"/>
</svg>
