<svg width="28" height="28" viewBox="0 0 28 28" fill="none" xmlns="http://www.w3.org/2000/svg">
<path d="M27.1076 21.7158H25.0166M3.96712 16.4658H1.29604M12.2223 16.4658H8.1547M12.2223 20.6419H8.1547M20.4768 16.4658H16.4099M20.4768 20.6419H16.4099M8.98909 1.02734C10.0644 1.53431 10.8144 3.62365 9.71896 5.31925C8.54981 7.12898 8.98879 8.59938 10.0644 9.47418M17.6081 1.02734C18.6833 1.53431 19.4333 3.62365 18.3379 5.31925C17.1688 7.12898 17.6077 8.59938 18.6833 9.47418M6.06091 26.6641C4.90455 26.6641 3.96712 25.7267 3.96712 24.5703V13.6676C3.96712 12.5112 4.90455 11.5738 6.06091 11.5738C7.21728 11.5738 8.1547 12.5112 8.1547 13.6676V24.5703C8.1547 25.7267 7.21728 26.6641 6.06091 26.6641ZM14.3161 26.6641C13.1597 26.6641 12.2223 25.7267 12.2223 24.5703V13.6676C12.2223 12.5112 13.1597 11.5738 14.3161 11.5738C15.4725 11.5738 16.4099 12.5112 16.4099 13.6676V24.5703C16.4099 25.7267 15.4725 26.6641 14.3161 26.6641ZM22.5706 26.6641C21.4143 26.6641 20.4768 25.7267 20.4768 24.5703V13.6676C20.4768 12.5112 21.4143 11.5738 22.5706 11.5738C23.727 11.5738 24.6644 12.5112 24.6644 13.6676V24.5703C24.6644 25.7267 23.727 26.6641 22.5706 26.6641Z" stroke="white" stroke-width="1.5" stroke-linecap="round"/>
</svg>
