<svg width="18" height="18" viewBox="0 0 18 18" fill="none" xmlns="http://www.w3.org/2000/svg">
<g clip-path="url(#clip0_9403_1276)">
<path fill-rule="evenodd" clip-rule="evenodd" d="M2.11381 3.88073C2.11381 3.00038 2.82747 2.28671 3.70782 2.28671H13.9349C14.8153 2.28671 15.529 3.00038 15.529 3.88073V5.98381C15.529 6.86416 14.8153 7.57783 13.9349 7.57783H13.6517C13.6469 7.60883 13.6415 7.64024 13.6354 7.67201C13.573 7.99889 13.4773 8.31934 13.3493 8.62828C13.103 9.22287 12.742 9.76314 12.2869 10.2182C11.8319 10.6733 11.2916 11.0343 10.697 11.2806C10.1024 11.5269 9.46512 11.6536 8.82153 11.6536C8.17794 11.6536 7.54066 11.5269 6.94606 11.2806C6.35147 11.0343 5.8112 10.6733 5.35612 10.2182C4.90103 9.76314 4.54004 9.22287 4.29375 8.62828C4.16579 8.31934 4.07009 7.99889 4.00767 7.67201C4.00163 7.64036 3.9966 7.60896 3.99256 7.57783H3.70782C2.82747 7.57783 2.11381 6.86416 2.11381 5.98381V3.88073ZM13.4822 5.92783L5.49489 5.92781C5.49234 5.92781 5.4898 5.92781 5.48726 5.92783H3.76381V3.93671H13.879V5.92783H13.4822ZM5.67713 7.57783C5.71449 7.72023 5.76156 7.86024 5.81815 7.99685C5.98152 8.39126 6.22098 8.74963 6.52284 9.0515C6.82471 9.35336 7.18308 9.59282 7.57749 9.75619C7.9719 9.91956 8.39463 10.0036 8.82153 10.0036C9.24844 10.0036 9.67116 9.91956 10.0656 9.75619C10.46 9.59282 10.8184 9.35336 11.1202 9.0515C11.4221 8.74963 11.6615 8.39126 11.8249 7.99685C11.8815 7.86024 11.9286 7.72023 11.9659 7.57783H5.67713ZM4.24469 10.3414C4.48088 10.7311 4.35648 11.2384 3.96684 11.4746L2.42288 12.4105C2.03324 12.6467 1.52591 12.5223 1.28972 12.1326C1.05353 11.743 1.17793 11.2357 1.56756 10.9995L3.11153 10.0636C3.50116 9.82738 4.0085 9.95178 4.24469 10.3414ZM13.7558 10.3414C13.992 9.95178 14.4993 9.82738 14.8889 10.0636L16.4329 10.9995C16.8225 11.2357 16.9469 11.743 16.7108 12.1326C16.4746 12.5223 15.9672 12.6467 15.5776 12.4105L14.0336 11.4746C13.644 11.2384 13.5196 10.7311 13.7558 10.3414ZM6.64843 12.2055C7.03522 12.4463 7.15356 12.9551 6.91274 13.3419L5.94881 14.8901C5.70799 15.2769 5.19921 15.3953 4.81242 15.1544C4.42562 14.9136 4.30729 14.4048 4.54811 14.018L5.51203 12.4698C5.75285 12.083 6.26163 11.9647 6.64843 12.2055ZM11.5438 12.2055C11.9306 11.9647 12.4394 12.083 12.6802 12.4698L13.6442 14.018C13.885 14.4048 13.7666 14.9136 13.3798 15.1544C12.993 15.3953 12.4843 15.2769 12.2434 14.8901L11.2795 13.3419C11.0387 12.9551 11.157 12.4463 11.5438 12.2055ZM9.14861 12.6873C9.60424 12.6872 9.97365 13.0565 9.97369 13.5122L9.9739 15.5327C9.97395 15.9883 9.60462 16.3577 9.14898 16.3578C8.69335 16.3578 8.32395 15.9885 8.3239 15.5329L8.32369 13.5123C8.32365 13.0567 8.69297 12.6873 9.14861 12.6873Z" fill="#B3B3B3"/>
</g>
<defs>
<clipPath id="clip0_9403_1276">
<rect width="18" height="18" fill="white"/>
</clipPath>
</defs>
</svg>
