<svg width="18" height="18" viewBox="0 0 18 18" fill="none" xmlns="http://www.w3.org/2000/svg">
<g clip-path="url(#clip0_9403_1250)">
<path fill-rule="evenodd" clip-rule="evenodd" d="M15.5896 1.00916V4.88469C16.5865 5.22722 17.3029 6.173 17.3029 7.2861C17.3029 8.68812 16.1663 9.82468 14.7643 9.82468C13.3623 9.82468 12.2257 8.68812 12.2257 7.2861C12.2257 6.17278 12.9424 5.22685 13.9396 4.88449V3.28821L10.8204 4.31326C10.7871 5.05414 10.3362 5.68628 9.69736 5.97988V12.4718H11.0188C12.1441 12.4718 13.1796 13.0865 13.7184 14.0745L14.0387 14.6617C14.6111 15.7113 13.8514 16.9908 12.656 16.9908H5.1278C3.93223 16.9908 3.17259 15.7111 3.74518 14.6615L4.06565 14.0741C4.60452 13.0864 5.63987 12.4718 6.76506 12.4718H8.04736V5.96115C7.79241 5.83687 7.56891 5.65808 7.39203 5.43994L3.84487 6.60565V7.59189H5.34245V12.0659H0.69743V7.59189H2.19487V5.41107L7.00202 3.8313C7.18383 2.95405 7.96098 2.29474 8.89213 2.29474C9.38691 2.29474 9.83821 2.48089 10.1798 2.78698L15.5896 1.00916ZM6.76506 14.1218C6.24363 14.1218 5.76384 14.4066 5.51411 14.8643L5.25416 15.3408H12.5296L12.2698 14.8645C12.0201 14.4067 11.5403 14.1218 11.0188 14.1218H6.76506ZM2.34743 9.24189H3.69245V10.4159H2.34743V9.24189ZM14.7643 8.17468C15.2551 8.17468 15.6529 7.77685 15.6529 7.2861C15.6529 6.79536 15.2551 6.39753 14.7643 6.39753C14.2736 6.39753 13.8758 6.79536 13.8758 7.2861C13.8758 7.77685 14.2736 8.17468 14.7643 8.17468Z" fill="#B3B3B3"/>
</g>
<defs>
<clipPath id="clip0_9403_1250">
<rect width="18" height="18" fill="white"/>
</clipPath>
</defs>
</svg>
